<svg width="197" height="197" viewBox="0 0 197 197" fill="none" xmlns="http://www.w3.org/2000/svg">
<circle cx="98.5496" cy="98.1594" r="96.9968" stroke="black" stroke-width="2"/>
<path d="M134.193 98.1594C134.193 125.133 130.103 149.508 123.524 167.103C120.233 175.905 116.338 182.958 112.064 187.793C107.789 192.629 103.22 195.156 98.5505 195.156C93.8811 195.156 89.3121 192.629 85.0369 187.793C80.7628 182.958 76.8682 175.905 73.5771 167.103C66.9979 149.508 62.9082 125.133 62.9082 98.1594C62.9082 71.1862 66.9979 46.8111 73.5771 29.2154C76.8682 20.4139 80.7628 13.3607 85.0369 8.526C89.3121 3.68993 93.8811 1.1626 98.5505 1.1626C103.22 1.1626 107.789 3.68993 112.064 8.526C116.338 13.3607 120.233 20.4139 123.524 29.2154C130.103 46.8111 134.193 71.1862 134.193 98.1594Z" stroke="black" stroke-width="2"/>
<line x1="98.6992" y1="0.162598" x2="98.6992" y2="192.748" stroke="black" stroke-width="2"/>
</svg>
