<svg width="20" height="22" viewBox="0 0 20 22" fill="none" xmlns="http://www.w3.org/2000/svg">
<path d="M0.499634 6.99373V18.8704C0.499634 20.5961 2.02698 22.0001 3.9043 22.0001H16.095C17.9723 22.0001 19.4996 20.5961 19.4996 18.8704V6.99373C19.4996 6.53619 19.0961 6.16528 18.5984 6.16528H14.8927V4.37964C14.8927 1.96475 12.7554 0.00012207 10.1284 0.00012207C7.50133 0.00012207 5.3641 1.9648 5.3641 4.37964V6.16528H1.40087C0.903087 6.16528 0.499634 6.53619 0.499634 6.99373ZM7.16652 4.37964C7.16652 2.87839 8.4952 1.65703 10.1284 1.65703C11.7615 1.65703 13.0902 2.87839 13.0902 4.37964V6.16528H7.16652V4.37964ZM2.3021 7.82218H5.36405V12.6093C5.36405 13.0669 5.76756 13.4378 6.26529 13.4378C6.76302 13.4378 7.16652 13.0669 7.16652 12.6093V7.82218H13.0902V12.6093C13.0902 13.0669 13.4937 13.4378 13.9915 13.4378C14.4892 13.4378 14.8927 13.0669 14.8927 12.6093V7.82218H17.6972V18.8704C17.6972 19.6825 16.9784 20.3432 16.095 20.3432H3.9043C3.02084 20.3432 2.3021 19.6825 2.3021 18.8704V7.82218Z" fill="#0A2926"/>
</svg>
