<svg width="333" height="38" viewBox="0 0 333 38" fill="none" xmlns="http://www.w3.org/2000/svg">
<path d="M71.3185 9.28778C71.3185 15.4281 64.3839 20.0858 54.8656 20.0858V19.0875C61.749 19.0875 66.3292 15.2241 66.3292 9.56926C66.3292 4.78397 63.0539 1.48358 58.3199 1.48358C54.8656 1.48358 54.0725 3.22379 54.0725 8.77608V27.5059C54.0725 33.0069 55.0708 35.1563 57.578 35.1563C57.7318 35.1563 57.8082 35.3363 57.8082 35.5141C57.8082 35.6942 57.7318 35.8982 57.578 35.8982H46.601C46.4472 35.8982 46.3708 35.6942 46.3708 35.4891C46.3708 35.3101 46.4221 35.1563 46.601 35.1563C48.8529 35.1563 49.5948 33.2372 49.5948 27.9925V8.77608C49.5948 3.53036 48.8529 1.63741 46.601 1.63741C46.4221 1.63741 46.3708 1.45739 46.3708 1.27847C46.3708 1.07444 46.4472 0.869324 46.601 0.869324H53.0742C55.122 0.869324 57.0663 0.382725 59.5484 0.382725C66.3292 0.382725 71.3185 4.04206 71.3185 9.28778Z" fill="#0A2926"/>
<path d="M71.0597 29.7319C71.0597 25.2281 76.2028 20.8531 85.4145 17.8592V17.4752C85.4145 14.1235 83.419 11.9742 80.2713 11.9742C78.2758 11.9742 76.1003 12.8186 74.1561 14.405L74.0273 14.4563C73.8233 14.4563 73.5931 14.1748 73.5931 13.9959C73.5931 13.9446 73.6182 13.8933 73.6444 13.8671C76.3054 11.2061 79.7847 10.0551 82.8811 10.0551C87.2049 10.1063 89.8921 12.9212 89.8921 17.1686V27.6077C89.8921 32.8796 90.634 34.7725 92.8859 34.7725C93.0397 34.7725 93.1161 34.9525 93.1161 35.1304C93.1161 35.3355 93.0397 35.5406 92.8859 35.5406H87.9991C86.2077 35.5406 85.4145 34.7212 85.4145 32.777V31.6511C83.9296 34.1845 81.0383 36.0261 77.9431 36.0261C74.1048 36.0261 71.0597 33.2112 71.0597 29.7319ZM85.4145 28.0692V18.9852C80.8343 20.6992 75.8952 24.0771 75.8952 28.4783C75.8952 31.267 77.9431 33.4676 80.5779 33.4676C83.3164 33.4676 85.4145 31.1394 85.4145 28.0692Z" fill="#0A2926"/>
<path d="M115.99 12.6138L114.992 18.6265C114.967 18.8316 114.813 18.908 114.634 18.908C114.455 18.908 114.25 18.7803 114.25 18.5763C114.25 14.1751 111.256 11.1049 106.779 11.1049C101.764 11.1049 98.6679 14.9682 98.6679 20.7758C98.6679 27.8381 103.197 33.0838 109.082 33.0838C112.255 33.0838 114.916 31.5237 116.348 28.6313C116.426 28.4786 116.578 28.4011 116.707 28.4011C116.911 28.4011 117.09 28.5298 117.09 28.7339V28.8113C116.042 33.0838 111.871 36.0264 106.727 36.0264C99.6651 36.0264 93.8826 30.3715 93.8826 23.0277C93.8826 15.6589 99.6138 10.004 107.981 10.004C111.308 10.004 114.097 10.9249 115.99 12.6138Z" fill="#0A2926"/>
<path d="M119.467 35.5405C119.313 35.5405 119.212 35.3354 119.212 35.1314C119.212 34.9525 119.288 34.7724 119.467 34.7724C121.693 34.7724 122.436 32.8795 122.436 27.6076V18.4221C122.436 13.1764 121.693 12.2818 119.467 12.2818C119.288 12.2818 119.212 12.1279 119.212 11.949C119.212 11.7439 119.313 11.5388 119.467 11.5137L126.094 10.1062H126.299C126.683 10.1062 126.939 10.439 126.939 10.8743V27.6076C126.939 32.8795 127.681 34.7724 129.907 34.7724C130.086 34.7724 130.163 34.9525 130.163 35.1314C130.163 35.3354 130.06 35.5405 129.907 35.5405H119.467ZM121.847 4.34884C121.847 2.71119 123.05 1.50887 124.687 1.50887C126.324 1.50887 127.528 2.71119 127.528 4.34884C127.528 6.01267 126.324 7.215 124.687 7.215C123.05 7.215 121.847 6.01267 121.847 4.34884Z" fill="#0A2926"/>
<path d="M133.232 35.5405C133.078 35.5405 132.977 35.3354 132.977 35.1314C132.977 34.9525 133.053 34.7724 133.232 34.7724C135.484 34.7724 136.226 32.8795 136.226 27.6076V11.5137H133.335C133.105 11.5137 133.002 11.2573 133.002 11.002C133.002 10.7718 133.105 10.5165 133.335 10.5165H136.226V7.85434C136.226 3.65821 139.655 -4.19617e-05 144.287 -4.19617e-05C146.18 -4.19617e-05 147.971 0.613121 149.173 1.61142L148.841 7.11244C148.816 7.31755 148.636 7.4452 148.432 7.4452C148.278 7.4452 148.099 7.34264 148.073 7.11244C147.69 3.55565 145.898 1.07354 143.749 1.07354C141.957 1.07354 140.704 2.81374 140.704 5.27076V10.5165H145.898C146.128 10.5165 146.231 10.7718 146.231 11.002C146.231 11.2573 146.128 11.5137 145.898 11.5137H140.704V27.1221C140.704 32.6231 141.702 34.7724 144.184 34.7724C144.363 34.7724 144.439 34.9525 144.439 35.1314C144.439 35.3354 144.337 35.5405 144.184 35.5405H133.232Z" fill="#0A2926"/>
<path d="M150.246 35.5405C150.092 35.5405 149.991 35.3354 149.991 35.1314C149.991 34.9525 150.067 34.7724 150.246 34.7724C152.472 34.7724 153.215 32.8795 153.215 27.6076V18.4221C153.215 13.1764 152.472 12.2818 150.246 12.2818C150.067 12.2818 149.991 12.1279 149.991 11.949C149.991 11.7439 150.092 11.5388 150.246 11.5137L156.873 10.1062H157.078C157.462 10.1062 157.718 10.439 157.718 10.8743V27.6076C157.718 32.8795 158.459 34.7724 160.686 34.7724C160.865 34.7724 160.942 34.9525 160.942 35.1314C160.942 35.3354 160.839 35.5405 160.686 35.5405H150.246ZM152.626 4.34884C152.626 2.71119 153.829 1.50887 155.466 1.50887C157.103 1.50887 158.307 2.71119 158.307 4.34884C158.307 6.01267 157.103 7.215 155.466 7.215C153.829 7.215 152.626 6.01267 152.626 4.34884Z" fill="#0A2926"/>
<path d="M184.071 12.6138L183.073 18.6265C183.048 18.8316 182.894 18.908 182.715 18.908C182.536 18.908 182.331 18.7803 182.331 18.5763C182.331 14.1751 179.337 11.1049 174.86 11.1049C169.845 11.1049 166.749 14.9682 166.749 20.7758C166.749 27.8381 171.278 33.0838 177.163 33.0838C180.335 33.0838 182.997 31.5237 184.429 28.6313C184.507 28.4786 184.659 28.4011 184.788 28.4011C184.992 28.4011 185.171 28.5298 185.171 28.7339V28.8113C184.122 33.0838 179.951 36.0264 174.808 36.0264C167.746 36.0264 161.964 30.3715 161.964 23.0277C161.964 15.6589 167.695 10.004 176.062 10.004C179.388 10.004 182.178 10.9249 184.071 12.6138Z" fill="#0A2926"/>
<path d="M208.8 0.869324C208.954 0.869324 209.056 1.07444 209.056 1.27847C209.056 1.45739 208.979 1.63742 208.8 1.63742C206.548 1.63742 205.807 3.53036 205.807 8.77608V17.8852H220.264V8.77608C220.264 3.53036 219.521 1.63742 217.27 1.63742C217.116 1.63742 217.04 1.45739 217.04 1.25337C217.04 1.07444 217.116 0.869324 217.27 0.869324H227.735C227.888 0.869324 227.991 1.07444 227.991 1.27847C227.991 1.45739 227.914 1.63742 227.735 1.63742C225.483 1.63742 224.742 3.53036 224.742 8.77608V27.9914C224.742 33.2372 225.483 35.1563 227.735 35.1563C227.914 35.1563 227.991 35.3352 227.991 35.5141C227.991 35.6942 227.888 35.8982 227.735 35.8982H217.27C217.116 35.8982 217.04 35.6942 217.04 35.5141C217.04 35.3352 217.116 35.1563 217.27 35.1563C219.521 35.1563 220.264 33.2372 220.264 27.9914V18.8824H205.807V27.9914C205.807 33.2372 206.548 35.1563 208.8 35.1563C208.979 35.1563 209.056 35.3352 209.056 35.5141C209.056 35.6942 208.954 35.8982 208.8 35.8982H198.335C198.181 35.8982 198.105 35.6942 198.105 35.5141C198.105 35.3352 198.181 35.1563 198.335 35.1563C200.587 35.1563 201.329 33.2372 201.329 27.9914V8.77608C201.329 3.53036 200.587 1.63742 198.335 1.63742C198.181 1.63742 198.105 1.45739 198.105 1.25337C198.105 1.07444 198.181 0.869324 198.335 0.869324H208.8Z" fill="#0A2926"/>
<path d="M228.245 23.0277C228.245 15.6589 233.976 10.004 241.217 10.004C246.386 10.004 250.377 12.9215 250.377 16.9125C250.377 19.5222 248.689 21.365 246.284 21.365H233.055C233.285 28.1196 237.738 33.0838 243.444 33.0838C246.642 33.0838 249.278 31.5226 250.71 28.6313C250.787 28.4786 250.94 28.4011 251.069 28.4011C251.273 28.4011 251.478 28.5288 251.478 28.7088L251.452 28.8113C250.429 33.0838 246.233 36.0264 241.115 36.0264C234.027 36.0264 228.245 30.3715 228.245 23.0277ZM245.388 16.8612C245.388 13.3819 243.393 11.1049 240.245 11.1049C236.228 11.1049 233.183 14.7882 233.03 20.3667H243.188C244.595 20.3667 245.388 19.1131 245.388 16.8612Z" fill="#0A2926"/>
<path d="M254.546 29.7319C254.546 25.2281 259.689 20.8531 268.9 17.8592V17.4752C268.9 14.1235 266.905 11.9742 263.757 11.9742C261.762 11.9742 259.586 12.8186 257.642 14.405L257.513 14.4563C257.309 14.4563 257.079 14.1748 257.079 13.9959C257.079 13.9446 257.104 13.8933 257.13 13.8671C259.791 11.2061 263.271 10.0551 266.367 10.0551C270.691 10.1063 273.378 12.9212 273.378 17.1686V27.6077C273.378 32.8796 274.12 34.7725 276.372 34.7725C276.526 34.7725 276.602 34.9525 276.602 35.1304C276.602 35.3355 276.526 35.5406 276.372 35.5406H271.485C269.694 35.5406 268.9 34.7212 268.9 32.777V31.6511C267.416 34.1845 264.524 36.0261 261.429 36.0261C257.591 36.0261 254.546 33.2112 254.546 29.7319ZM268.9 28.0692V18.9852C264.32 20.6992 259.381 24.0771 259.381 28.4783C259.381 31.267 261.429 33.4676 264.064 33.4676C266.802 33.4676 268.9 31.1394 268.9 28.0692Z" fill="#0A2926"/>
<path d="M279.389 35.5405C279.235 35.5405 279.158 35.3354 279.158 35.1314C279.158 34.9525 279.235 34.7724 279.389 34.7724C281.641 34.7724 282.382 32.8795 282.382 27.6076V8.41732C282.382 3.1727 281.641 2.25077 279.389 2.25077C279.235 2.25077 279.158 2.09803 279.158 1.9191C279.158 1.73907 279.235 1.53505 279.389 1.50887L286.016 0.101429H286.246C286.63 0.101429 286.86 0.434193 286.86 0.869518V27.6076C286.86 32.8795 287.602 34.7724 289.854 34.7724C290.033 34.7724 290.109 34.9525 290.109 35.1314C290.109 35.3354 290.008 35.5405 289.854 35.5405H279.389Z" fill="#0A2926"/>
<path d="M294.074 28.683V11.5144H291.208C290.977 11.5144 290.876 11.258 290.876 11.0016C290.876 10.7714 290.977 10.5161 291.208 10.5161C294.381 10.5161 296.632 7.85504 297.579 3.01846C297.631 2.76316 297.861 2.63551 298.117 2.63551C298.347 2.63551 298.578 2.76316 298.578 3.01846V10.5161H304.258C304.488 10.5161 304.59 10.7714 304.59 11.0016C304.59 11.258 304.488 11.5144 304.258 11.5144H298.578V28.683C298.578 31.6768 299.704 33.5184 301.469 33.5184C302.467 33.5184 303.388 32.8791 304.054 31.728C304.104 31.6255 304.206 31.5742 304.309 31.5742C304.514 31.5742 304.718 31.7542 304.718 31.9583L304.693 32.0608C303.592 34.6455 301.802 36.0267 299.472 36.0267C296.172 36.0267 294.074 33.2119 294.074 28.683Z" fill="#0A2926"/>
<path d="M322.219 35.5405C322.066 35.5405 321.964 35.3354 321.964 35.1314C321.964 34.9525 322.04 34.7724 322.219 34.7724C324.445 34.7724 325.188 32.8795 325.188 27.6076V17.6551C325.188 14.226 323.294 12.0516 320.352 12.0516C316.922 12.0516 314.236 15.0705 314.236 18.96V27.6076C314.236 32.8795 314.978 34.7724 317.23 34.7724C317.384 34.7724 317.46 34.9525 317.46 35.1314C317.46 35.3354 317.384 35.5405 317.23 35.5405H306.765C306.611 35.5405 306.508 35.3354 306.508 35.1314C306.508 34.9525 306.586 34.7724 306.765 34.7724C308.991 34.7724 309.759 32.8795 309.759 27.6076V8.41732C309.759 3.1727 308.991 2.25077 306.765 2.25077C306.586 2.25077 306.508 2.09803 306.508 1.9191C306.508 1.73907 306.611 1.53505 306.765 1.50887L313.392 0.101429H313.597C313.98 0.101429 314.236 0.434193 314.236 0.869518V14.9166C315.746 12.0003 318.868 10.0037 322.45 10.0037C326.876 10.0037 329.691 13.0237 329.691 17.6551V27.6076C329.691 32.8795 330.433 34.7724 332.66 34.7724C332.838 34.7724 332.915 34.9525 332.915 35.1314C332.915 35.3354 332.812 35.5405 332.66 35.5405H322.219Z" fill="#0A2926"/>
<path d="M23.7223 8.41664C22.8102 8.41664 21.9602 8.87488 21.2205 9.68661C20.4797 8.87488 19.6298 8.41664 18.7177 8.41664C17.8056 8.41664 16.9556 8.87488 16.2148 9.68661C15.474 8.87488 14.6241 8.41664 13.712 8.41664C10.764 8.41664 8.45537 13.1888 8.45537 19.2812C8.45537 25.3736 10.764 30.1469 13.712 30.1469C14.6241 30.1469 15.474 29.6886 16.2148 28.8769C16.9556 29.6886 17.8056 30.1469 18.7177 30.1469C19.6298 30.1469 20.4797 29.6875 21.2205 28.8769C21.9602 29.6875 22.8102 30.1469 23.7223 30.1469C26.6713 30.1469 28.98 25.3736 28.98 19.2812C28.98 13.1888 26.6713 8.41664 23.7223 8.41664ZM18.7177 8.92179C19.5032 8.92179 20.2429 9.34512 20.8954 10.0837C19.8698 11.4137 19.093 13.454 18.7177 15.9023C18.3424 13.454 17.5655 11.4137 16.54 10.0837C17.1924 9.34512 17.9321 8.92179 18.7177 8.92179ZM13.712 29.6428C11.0913 29.6428 8.95943 24.9939 8.95943 19.2812C8.95943 13.5685 11.0913 8.92179 13.712 8.92179C14.4975 8.92179 15.2373 9.34512 15.8908 10.0837C14.5303 11.848 13.6094 14.8669 13.4807 18.4204C13.0945 18.5251 12.8042 18.8622 12.8042 19.2812C12.8042 19.7002 13.0945 20.0384 13.4807 20.1431C13.6094 23.6955 14.5303 26.7144 15.8908 28.4797C15.2373 29.2184 14.4975 29.6428 13.712 29.6428ZM13.9837 20.1344C14.3513 20.0177 14.6208 19.6871 14.6208 19.2812C14.6208 18.8764 14.3513 18.5448 13.9837 18.428C14.1102 15.0763 14.971 12.1785 16.2148 10.4907C17.4586 12.1785 18.3194 15.0763 18.446 18.428C18.0794 18.5448 17.8088 18.8764 17.8088 19.2812C17.8088 19.686 18.0794 20.0177 18.446 20.1344C18.3194 23.4872 17.4586 26.385 16.2148 28.0728C14.971 26.385 14.1102 23.4872 13.9837 20.1344ZM18.7177 29.6428C17.9321 29.6428 17.1924 29.2184 16.54 28.4797C17.5655 27.1487 18.3424 25.1095 18.7177 22.6601C19.093 25.1095 19.8698 27.1487 20.8954 28.4797C20.2429 29.2184 19.5032 29.6428 18.7177 29.6428ZM18.9893 20.1344C19.3559 20.0177 19.6254 19.686 19.6254 19.2812C19.6254 18.8764 19.3559 18.5448 18.9893 18.428C19.1159 15.0763 19.9767 12.1785 21.2205 10.4907C22.4632 12.1785 23.324 15.0763 23.4506 18.428C23.084 18.5458 22.8145 18.8764 22.8145 19.2812C22.8145 19.686 23.084 20.0177 23.4506 20.1344C23.324 23.4872 22.4632 26.385 21.2205 28.0728C19.9767 26.385 19.1159 23.4872 18.9893 20.1344ZM23.7223 29.6428C22.9367 29.6428 22.197 29.2184 21.5446 28.4797C22.904 26.7144 23.8248 23.6955 23.9547 20.1431C24.3409 20.0395 24.6311 19.7013 24.6311 19.2812C24.6311 18.8612 24.3409 18.524 23.9547 18.4193C23.8248 14.8669 22.904 11.848 21.5446 10.0837C22.1981 9.34512 22.9367 8.92179 23.7223 8.92179C26.3429 8.92179 28.4759 13.5685 28.4759 19.2812C28.4759 24.9939 26.3429 29.6428 23.7223 29.6428Z" fill="#0A2926"/>
<path d="M23.7227 30.4387C22.8433 30.4387 21.9836 30.0449 21.2198 29.2964C19.6935 30.7933 17.7416 30.7944 16.2152 29.2964C15.4515 30.0449 14.5918 30.4387 13.7124 30.4387C10.6008 30.4387 8.16338 25.5378 8.16338 19.2807C8.16338 13.0247 10.6008 8.12372 13.7124 8.12372C14.5918 8.12372 15.4515 8.51758 16.2152 9.26604C17.7427 7.76804 19.6946 7.77022 21.2198 9.26604C21.9836 8.51758 22.8433 8.12372 23.7227 8.12372C26.8343 8.12372 29.2728 13.0247 29.2728 19.2807C29.2728 25.5378 26.8343 30.4387 23.7227 30.4387ZM21.9235 28.4585C22.5007 29.0509 23.1051 29.3499 23.7227 29.3499C26.1415 29.3499 28.1839 24.7391 28.1839 19.2807C28.1839 13.8233 26.1415 9.21257 23.7227 9.21257C23.1051 9.21257 22.5007 9.51152 21.9235 10.104C23.2524 11.9544 24.0893 14.8827 24.2387 18.2125C24.6555 18.4078 24.9239 18.8148 24.9239 19.2807C24.9239 19.7389 24.6511 20.1524 24.2387 20.3477C24.0893 23.6786 23.2524 26.6081 21.9235 28.4585ZM16.919 28.4585C18.0722 29.6423 19.3629 29.6423 20.5172 28.4585C19.7437 27.3794 19.1229 25.9033 18.7181 24.1914C18.3122 25.9033 17.6925 27.3794 16.919 28.4585ZM13.7124 9.21257C11.2947 9.21257 9.25223 13.8233 9.25223 19.2807C9.25223 24.7391 11.2947 29.3499 13.7124 29.3499C14.331 29.3499 14.9344 29.0509 15.5115 28.4585C14.1826 26.6081 13.3458 23.6808 13.1963 20.3477C12.7806 20.1535 12.5133 19.7476 12.5133 19.2807C12.5133 18.8148 12.7806 18.4089 13.1963 18.2147C13.3458 14.8827 14.1826 11.9544 15.5115 10.104C14.9344 9.51152 14.331 9.21257 13.7124 9.21257ZM19.2898 20.3226C19.4262 23.2237 20.1364 25.876 21.2198 27.5584C22.3032 25.876 23.0146 23.2237 23.151 20.3226C22.768 20.1153 22.5236 19.7204 22.5236 19.2807C22.5236 18.841 22.768 18.446 23.151 18.2398C23.0146 15.3388 22.3032 12.6864 21.2198 11.0041C20.1364 12.6864 19.4262 15.3388 19.2898 18.2398C19.6727 18.446 19.9182 18.841 19.9182 19.2807C19.9182 19.7215 19.6727 20.1164 19.2898 20.3226ZM14.2841 20.3226C14.4216 23.2226 15.1318 25.876 16.2152 27.5584C17.2986 25.876 18.0089 23.2226 18.1464 20.3226C17.7634 20.1164 17.5179 19.7215 17.5179 19.2807C17.5179 18.841 17.7634 18.446 18.1464 18.2398C18.01 15.3388 17.2986 12.6864 16.2152 11.0051C15.1318 12.6864 14.4216 15.3388 14.2841 18.2387C14.6681 18.4449 14.9136 18.841 14.9136 19.2807C14.9136 19.7215 14.6681 20.1164 14.2841 20.3226ZM18.7181 20.5626C18.7126 20.6608 18.7061 20.759 18.6995 20.8561L18.7181 20.735L18.7366 20.8561C18.7301 20.759 18.7235 20.6608 18.7181 20.5626ZM18.7181 18.6468L18.5348 18.7057C18.2762 18.7886 18.1016 19.0199 18.1016 19.2807C18.1016 19.5425 18.2751 19.7738 18.5348 19.8567L18.7181 19.9146L18.9014 19.8567C19.1599 19.7738 19.3345 19.5425 19.3345 19.2807C19.3345 19.0199 19.1599 18.7886 18.9014 18.7057L18.7181 18.6468ZM23.703 18.6533L23.5394 18.7057C23.2808 18.7886 23.1073 19.0199 23.1073 19.2807C23.1073 19.5425 23.2808 19.7738 23.5394 19.8567L23.703 19.9091L23.8787 19.8611C24.1547 19.7869 24.3402 19.5534 24.3402 19.2807C24.3402 19.009 24.1547 18.7755 23.8787 18.7013L23.703 18.6533ZM13.7331 18.6533L13.5564 18.7013C13.2814 18.7766 13.097 19.009 13.097 19.2807C13.097 19.5534 13.2814 19.7858 13.5564 19.8611L13.7331 19.908L13.8957 19.8567C14.1554 19.7738 14.3299 19.5425 14.3299 19.2807C14.3299 19.0188 14.1554 18.7886 13.8957 18.7057L13.7331 18.6533ZM18.6995 17.7041C18.7061 17.8023 18.7126 17.9005 18.7181 17.9987C18.7235 17.9005 18.7301 17.8023 18.7366 17.7041L18.7181 17.8263L18.6995 17.7041ZM16.919 10.104C17.6925 11.183 18.3122 12.6592 18.7181 14.371C19.1229 12.6592 19.7437 11.183 20.5172 10.104C19.3629 8.92018 18.0722 8.92018 16.919 10.104Z" fill="#0A2926"/>
<path d="M18.7174 0.855526C8.5577 0.855526 0.291992 9.12123 0.291992 19.281C0.291992 29.4418 8.5577 37.7075 18.7174 37.7075C28.8772 37.7075 37.1429 29.4418 37.1429 19.281C37.1429 9.12123 28.8772 0.855526 18.7174 0.855526ZM18.7174 37.2035C8.83591 37.2035 0.796052 29.1636 0.796052 19.281C0.796052 9.39944 8.83591 1.35958 18.7174 1.35958C28.599 1.35958 36.6388 9.39944 36.6388 19.281C36.6388 29.1636 28.599 37.2035 18.7174 37.2035Z" fill="#0A2926"/>
<path d="M18.7178 38.0001C8.39663 38.0001 0 29.6024 0 19.2812C0 8.95996 8.39663 0.563332 18.7178 0.563332C29.0391 0.563332 37.4357 8.95996 37.4357 19.2812C37.4357 29.6024 29.0391 38.0001 18.7178 38.0001ZM18.7178 1.65219C8.9967 1.65219 1.08886 9.56003 1.08886 19.2812C1.08886 29.0034 8.9967 36.9124 18.7178 36.9124C28.439 36.9124 36.3468 29.0034 36.3468 19.2812C36.3468 9.56003 28.439 1.65219 18.7178 1.65219Z" fill="#0A2926"/>
</svg>
