<svg width="30" height="30" viewBox="0 0 30 30" fill="none" xmlns="http://www.w3.org/2000/svg">
<g clip-path="url(#clip0_372_502)">
<path d="M29.6419 15.3452C29.6419 14.3255 29.5592 13.3004 29.3828 12.2972H15.2344V18.0735H23.3365C23.0003 19.9364 21.92 21.5844 20.3382 22.6316V26.3795H25.1719C28.0104 23.767 29.6419 19.9089 29.6419 15.3452Z" fill="#4285F4"/>
<path d="M15.2345 30.001C19.28 30.001 22.6917 28.6727 25.1775 26.3799L20.3438 22.6319C18.9989 23.5469 17.2627 24.065 15.24 24.065C11.3267 24.065 8.00866 21.4249 6.81814 17.8754H1.83008V21.739C4.37647 26.8043 9.56295 30.001 15.2345 30.001Z" fill="#34A853"/>
<path d="M6.81255 17.8755C6.18422 16.0126 6.18422 13.9953 6.81255 12.1324V8.26868H1.83C-0.297501 12.5071 -0.297501 17.5007 1.83 21.7392L6.81255 17.8755Z" fill="#FBBC04"/>
<path d="M15.2344 5.93707C17.373 5.904 19.4398 6.70871 20.9886 8.18583L25.2712 3.90327C22.5595 1.35688 18.9603 -0.0430825 15.2344 0.00101083C9.56295 0.00101083 4.37647 3.19778 1.83008 8.26851L6.81262 12.1322C7.99763 8.57716 11.3212 5.93707 15.2344 5.93707Z" fill="#EA4335"/>
</g>
<defs>
<clipPath id="clip0_372_502">
<rect width="30" height="30" fill="white"/>
</clipPath>
</defs>
</svg>
