<svg width="20" height="22" viewBox="0 0 20 22" fill="none" xmlns="http://www.w3.org/2000/svg">
<path d="M0.5 6.99373V18.8704C0.5 20.5961 2.02734 22.0001 3.90467 22.0001H16.0953C17.9727 22.0001 19.5 20.5961 19.5 18.8704V6.99373C19.5 6.53619 19.0965 6.16528 18.5988 6.16528H14.8931V4.37964C14.8931 1.96475 12.7558 0.00012207 10.1288 0.00012207C7.5017 0.00012207 5.36447 1.9648 5.36447 4.37964V6.16528H1.40124C0.903453 6.16528 0.5 6.53619 0.5 6.99373ZM7.16689 4.37964C7.16689 2.87839 8.49556 1.65703 10.1288 1.65703C11.7619 1.65703 13.0906 2.87839 13.0906 4.37964V6.16528H7.16689V4.37964ZM2.30247 7.82218H5.36442V12.6093C5.36442 13.0669 5.76792 13.4378 6.26565 13.4378C6.76339 13.4378 7.16689 13.0669 7.16689 12.6093V7.82218H13.0906V12.6093C13.0906 13.0669 13.4941 13.4378 13.9918 13.4378C14.4896 13.4378 14.8931 13.0669 14.8931 12.6093V7.82218H17.6975V18.8704C17.6975 19.6825 16.9788 20.3432 16.0953 20.3432H3.90467C3.02121 20.3432 2.30247 19.6825 2.30247 18.8704V7.82218Z" fill="#0A2926"/>
</svg>
