<svg width="19" height="23" viewBox="0 0 19 23" fill="none" xmlns="http://www.w3.org/2000/svg">
<path d="M0 7.49361V19.3703C0 21.096 1.52734 22.5 3.40467 22.5H15.5953C17.4727 22.5 19 21.096 19 19.3703V7.49361C19 7.03607 18.5965 6.66515 18.0988 6.66515H14.3931V4.87952C14.3931 2.46463 12.2558 0.5 9.6288 0.5C7.0017 0.5 4.86447 2.46467 4.86447 4.87952V6.66515H0.901236C0.403453 6.66515 0 7.03607 0 7.49361ZM6.66689 4.87952C6.66689 3.37827 7.99556 2.1569 9.62875 2.1569C11.2619 2.1569 12.5906 3.37827 12.5906 4.87952V6.66515H6.66689V4.87952ZM1.80247 8.32206H4.86442V13.1092C4.86442 13.5668 5.26792 13.9377 5.76565 13.9377C6.26339 13.9377 6.66689 13.5668 6.66689 13.1092V8.32206H12.5906V13.1092C12.5906 13.5668 12.9941 13.9377 13.4918 13.9377C13.9896 13.9377 14.3931 13.5668 14.3931 13.1092V8.32206H17.1975V19.3703C17.1975 20.1824 16.4788 20.8431 15.5953 20.8431H3.40467C2.52121 20.8431 1.80247 20.1824 1.80247 19.3703V8.32206Z" fill="#0A2926"/>
<path d="M0 7.49361V19.3703C0 21.096 1.52734 22.5 3.40467 22.5H15.5953C17.4727 22.5 19 21.096 19 19.3703V7.49361C19 7.03607 18.5965 6.66515 18.0988 6.66515H14.3931V4.87952C14.3931 2.46463 12.2558 0.5 9.6288 0.5C7.0017 0.5 4.86447 2.46467 4.86447 4.87952V6.66515H0.901236C0.403453 6.66515 0 7.03607 0 7.49361ZM6.66689 4.87952C6.66689 3.37827 7.99556 2.1569 9.62875 2.1569C11.2619 2.1569 12.5906 3.37827 12.5906 4.87952V6.66515H6.66689V4.87952ZM1.80247 8.32206H4.86442V13.1092C4.86442 13.5668 5.26792 13.9377 5.76565 13.9377C6.26339 13.9377 6.66689 13.5668 6.66689 13.1092V8.32206H12.5906V13.1092C12.5906 13.5668 12.9941 13.9377 13.4918 13.9377C13.9896 13.9377 14.3931 13.5668 14.3931 13.1092V8.32206H17.1975V19.3703C17.1975 20.1824 16.4788 20.8431 15.5953 20.8431H3.40467C2.52121 20.8431 1.80247 20.1824 1.80247 19.3703V8.32206Z" fill="black" fill-opacity="0.2"/>
</svg>
