<svg width="15" height="19" viewBox="0 0 15 19" fill="none" xmlns="http://www.w3.org/2000/svg">
<g id="Group 126">
<g id="Vector">
<path d="M2 5H13V6H2V5Z" fill="#0A2926"/>
<path d="M2 5H13V6H2V5Z" fill="black" fill-opacity="0.2"/>
</g>
<g id="Vector_2">
<path d="M2 7H13V8H2V7Z" fill="#0A2926"/>
<path d="M2 7H13V8H2V7Z" fill="black" fill-opacity="0.2"/>
</g>
<g id="Vector_3">
<path d="M2 9H13V10H2V9Z" fill="#0A2926"/>
<path d="M2 9H13V10H2V9Z" fill="black" fill-opacity="0.2"/>
</g>
<g id="Vector_4">
<path d="M2 11H13V12H2V11Z" fill="#0A2926"/>
<path d="M2 11H13V12H2V11Z" fill="black" fill-opacity="0.2"/>
</g>
<g id="Vector_5">
<path d="M13.75 1.1875H12.5V0.59375C12.5 0.265763 12.2203 0 11.875 0C11.5297 0 11.25 0.265763 11.25 0.59375V1.1875H10V0.59375C10 0.265763 9.72025 0 9.375 0C9.02975 0 8.75 0.265763 8.75 0.59375V1.1875H6.25V0.59375C6.25 0.265763 5.97025 0 5.625 0C5.27975 0 5 0.265763 5 0.59375V1.1875H3.75V0.59375C3.75 0.265763 3.47025 0 3.125 0C2.77975 0 2.5 0.265763 2.5 0.59375V1.1875H1.25C0.55975 1.1875 0 1.71926 0 2.375V17.8125C0 18.4682 0.55975 19 1.25 19H13.75C14.4403 19 15 18.4682 15 17.8125V2.375C15 1.71926 14.4403 1.1875 13.75 1.1875ZM13.75 17.8125C13.75 17.8125 13.6472 17.8125 10 17.8125H1.25V2.375H2.5V2.93479C2.5 3.24544 2.73525 3.5283 3.0605 3.55941C3.43475 3.59504 3.75 3.31693 3.75 2.96875V2.375H5V2.93479C5 3.24544 5.23525 3.5283 5.5605 3.55941C5.93475 3.59504 6.25 3.31693 6.25 2.96875V2.375H8.75V2.93479C8.75 3.24544 8.98525 3.5283 9.3105 3.55941C9.68475 3.59504 10 3.31693 10 2.96875V2.375H11.25V2.93479C11.25 3.24544 11.4852 3.5283 11.8105 3.55941C12.1847 3.59504 12.5 3.31693 12.5 2.96875V2.375H13.75V14.25C13.75 16.2046 13.75 15 13.75 17.8125Z" fill="#0A2926"/>
<path d="M13.75 1.1875H12.5V0.59375C12.5 0.265763 12.2203 0 11.875 0C11.5297 0 11.25 0.265763 11.25 0.59375V1.1875H10V0.59375C10 0.265763 9.72025 0 9.375 0C9.02975 0 8.75 0.265763 8.75 0.59375V1.1875H6.25V0.59375C6.25 0.265763 5.97025 0 5.625 0C5.27975 0 5 0.265763 5 0.59375V1.1875H3.75V0.59375C3.75 0.265763 3.47025 0 3.125 0C2.77975 0 2.5 0.265763 2.5 0.59375V1.1875H1.25C0.55975 1.1875 0 1.71926 0 2.375V17.8125C0 18.4682 0.55975 19 1.25 19H13.75C14.4403 19 15 18.4682 15 17.8125V2.375C15 1.71926 14.4403 1.1875 13.75 1.1875ZM13.75 17.8125C13.75 17.8125 13.6472 17.8125 10 17.8125H1.25V2.375H2.5V2.93479C2.5 3.24544 2.73525 3.5283 3.0605 3.55941C3.43475 3.59504 3.75 3.31693 3.75 2.96875V2.375H5V2.93479C5 3.24544 5.23525 3.5283 5.5605 3.55941C5.93475 3.59504 6.25 3.31693 6.25 2.96875V2.375H8.75V2.93479C8.75 3.24544 8.98525 3.5283 9.3105 3.55941C9.68475 3.59504 10 3.31693 10 2.96875V2.375H11.25V2.93479C11.25 3.24544 11.4852 3.5283 11.8105 3.55941C12.1847 3.59504 12.5 3.31693 12.5 2.96875V2.375H13.75V14.25C13.75 16.2046 13.75 15 13.75 17.8125Z" fill="black" fill-opacity="0.2"/>
</g>
</g>
</svg>
