<svg width="36" height="36" viewBox="0 0 36 36" fill="none" xmlns="http://www.w3.org/2000/svg">
<g id="Group 111">
<circle id="Ellipse 24" cx="18" cy="18" r="18" fill="white"/>
<g id="Union">
<mask id="path-2-outside-1_3668_2400" maskUnits="userSpaceOnUse" x="9.56641" y="9.56848" width="17" height="17" fill="black">
<rect fill="white" x="9.56641" y="9.56848" width="17" height="17"/>
<path fill-rule="evenodd" clip-rule="evenodd" d="M26.0006 11.3806L25.1884 10.5685L18.2835 17.4734L11.3785 10.5685L10.5664 11.3807L17.4713 18.2856L10.5699 25.187L11.3821 25.9991L18.2835 19.0977L25.1849 25.9991L25.997 25.187L19.0956 18.2856L26.0006 11.3806Z"/>
</mask>
<path fill-rule="evenodd" clip-rule="evenodd" d="M26.0006 11.3806L25.1884 10.5685L18.2835 17.4734L11.3785 10.5685L10.5664 11.3807L17.4713 18.2856L10.5699 25.187L11.3821 25.9991L18.2835 19.0977L25.1849 25.9991L25.997 25.187L19.0956 18.2856L26.0006 11.3806Z" fill="#0A2926"/>
<path fill-rule="evenodd" clip-rule="evenodd" d="M26.0006 11.3806L25.1884 10.5685L18.2835 17.4734L11.3785 10.5685L10.5664 11.3807L17.4713 18.2856L10.5699 25.187L11.3821 25.9991L18.2835 19.0977L25.1849 25.9991L25.997 25.187L19.0956 18.2856L26.0006 11.3806Z" fill="black" fill-opacity="0.2"/>
<path d="M25.1884 10.5685L25.3652 10.3917L25.1884 10.2149L25.0116 10.3917L25.1884 10.5685ZM26.0006 11.3806L26.1773 11.5574L26.3541 11.3806L26.1773 11.2038L26.0006 11.3806ZM18.2835 17.4734L18.1067 17.6502L18.2835 17.827L18.4602 17.6502L18.2835 17.4734ZM11.3785 10.5685L11.5553 10.3918L11.3785 10.215L11.2018 10.3918L11.3785 10.5685ZM10.5664 11.3807L10.3896 11.2039L10.2129 11.3807L10.3896 11.5574L10.5664 11.3807ZM17.4713 18.2856L17.6481 18.4624L17.8249 18.2856L17.6481 18.1088L17.4713 18.2856ZM10.5699 25.187L10.3932 25.0102L10.2164 25.187L10.3932 25.3637L10.5699 25.187ZM11.3821 25.9991L11.2053 26.1759L11.3821 26.3526L11.5589 26.1759L11.3821 25.9991ZM18.2835 19.0977L18.4602 18.9209L18.2835 18.7442L18.1067 18.9209L18.2835 19.0977ZM25.1849 25.9991L25.0081 26.1759L25.1849 26.3527L25.3617 26.1759L25.1849 25.9991ZM25.997 25.187L26.1738 25.3638L26.3506 25.187L26.1738 25.0102L25.997 25.187ZM19.0956 18.2856L18.9188 18.1088L18.742 18.2856L18.9188 18.4624L19.0956 18.2856ZM25.0116 10.7453L25.8238 11.5574L26.1773 11.2038L25.3652 10.3917L25.0116 10.7453ZM18.4602 17.6502L25.3652 10.7453L25.0116 10.3917L18.1067 17.2967L18.4602 17.6502ZM11.2018 10.7453L18.1067 17.6502L18.4602 17.2967L11.5553 10.3918L11.2018 10.7453ZM10.7432 11.5574L11.5553 10.7453L11.2018 10.3918L10.3896 11.2039L10.7432 11.5574ZM17.6481 18.1088L10.7432 11.2039L10.3896 11.5574L17.2945 18.4624L17.6481 18.1088ZM10.7467 25.3637L17.6481 18.4624L17.2945 18.1088L10.3932 25.0102L10.7467 25.3637ZM11.5589 25.8223L10.7467 25.0102L10.3932 25.3637L11.2053 26.1759L11.5589 25.8223ZM18.1067 18.9209L11.2053 25.8223L11.5589 26.1759L18.4602 19.2745L18.1067 18.9209ZM25.3617 25.8224L18.4602 18.9209L18.1067 19.2745L25.0081 26.1759L25.3617 25.8224ZM25.8202 25.0102L25.0081 25.8224L25.3617 26.1759L26.1738 25.3638L25.8202 25.0102ZM18.9188 18.4624L25.8202 25.3638L26.1738 25.0102L19.2724 18.1088L18.9188 18.4624ZM25.8238 11.2038L18.9188 18.1088L19.2724 18.4624L26.1773 11.5574L25.8238 11.2038Z" fill="#0A2926" mask="url(#path-2-outside-1_3668_2400)"/>
<path d="M25.1884 10.5685L25.3652 10.3917L25.1884 10.2149L25.0116 10.3917L25.1884 10.5685ZM26.0006 11.3806L26.1773 11.5574L26.3541 11.3806L26.1773 11.2038L26.0006 11.3806ZM18.2835 17.4734L18.1067 17.6502L18.2835 17.827L18.4602 17.6502L18.2835 17.4734ZM11.3785 10.5685L11.5553 10.3918L11.3785 10.215L11.2018 10.3918L11.3785 10.5685ZM10.5664 11.3807L10.3896 11.2039L10.2129 11.3807L10.3896 11.5574L10.5664 11.3807ZM17.4713 18.2856L17.6481 18.4624L17.8249 18.2856L17.6481 18.1088L17.4713 18.2856ZM10.5699 25.187L10.3932 25.0102L10.2164 25.187L10.3932 25.3637L10.5699 25.187ZM11.3821 25.9991L11.2053 26.1759L11.3821 26.3526L11.5589 26.1759L11.3821 25.9991ZM18.2835 19.0977L18.4602 18.9209L18.2835 18.7442L18.1067 18.9209L18.2835 19.0977ZM25.1849 25.9991L25.0081 26.1759L25.1849 26.3527L25.3617 26.1759L25.1849 25.9991ZM25.997 25.187L26.1738 25.3638L26.3506 25.187L26.1738 25.0102L25.997 25.187ZM19.0956 18.2856L18.9188 18.1088L18.742 18.2856L18.9188 18.4624L19.0956 18.2856ZM25.0116 10.7453L25.8238 11.5574L26.1773 11.2038L25.3652 10.3917L25.0116 10.7453ZM18.4602 17.6502L25.3652 10.7453L25.0116 10.3917L18.1067 17.2967L18.4602 17.6502ZM11.2018 10.7453L18.1067 17.6502L18.4602 17.2967L11.5553 10.3918L11.2018 10.7453ZM10.7432 11.5574L11.5553 10.7453L11.2018 10.3918L10.3896 11.2039L10.7432 11.5574ZM17.6481 18.1088L10.7432 11.2039L10.3896 11.5574L17.2945 18.4624L17.6481 18.1088ZM10.7467 25.3637L17.6481 18.4624L17.2945 18.1088L10.3932 25.0102L10.7467 25.3637ZM11.5589 25.8223L10.7467 25.0102L10.3932 25.3637L11.2053 26.1759L11.5589 25.8223ZM18.1067 18.9209L11.2053 25.8223L11.5589 26.1759L18.4602 19.2745L18.1067 18.9209ZM25.3617 25.8224L18.4602 18.9209L18.1067 19.2745L25.0081 26.1759L25.3617 25.8224ZM25.8202 25.0102L25.0081 25.8224L25.3617 26.1759L26.1738 25.3638L25.8202 25.0102ZM18.9188 18.4624L25.8202 25.3638L26.1738 25.0102L19.2724 18.1088L18.9188 18.4624ZM25.8238 11.2038L18.9188 18.1088L19.2724 18.4624L26.1773 11.5574L25.8238 11.2038Z" fill="black" fill-opacity="0.2" mask="url(#path-2-outside-1_3668_2400)"/>
</g>
</g>
</svg>
