<svg width="164" height="36" viewBox="0 0 164 36" fill="none" xmlns="http://www.w3.org/2000/svg">
<circle cx="146" cy="18" r="18" fill="white"/>
<mask id="path-2-outside-1_3572_2991" maskUnits="userSpaceOnUse" x="137.566" y="9.56848" width="17" height="17" fill="black">
<rect fill="white" x="137.566" y="9.56848" width="17" height="17"/>
<path fill-rule="evenodd" clip-rule="evenodd" d="M154.001 11.3806L153.188 10.5685L146.283 17.4734L139.379 10.5685L138.566 11.3807L145.471 18.2856L138.57 25.187L139.382 25.9991L146.283 19.0977L153.185 25.9991L153.997 25.187L147.096 18.2856L154.001 11.3806Z"/>
</mask>
<path fill-rule="evenodd" clip-rule="evenodd" d="M154.001 11.3806L153.188 10.5685L146.283 17.4734L139.379 10.5685L138.566 11.3807L145.471 18.2856L138.57 25.187L139.382 25.9991L146.283 19.0977L153.185 25.9991L153.997 25.187L147.096 18.2856L154.001 11.3806Z" fill="#0A2926"/>
<path fill-rule="evenodd" clip-rule="evenodd" d="M154.001 11.3806L153.188 10.5685L146.283 17.4734L139.379 10.5685L138.566 11.3807L145.471 18.2856L138.57 25.187L139.382 25.9991L146.283 19.0977L153.185 25.9991L153.997 25.187L147.096 18.2856L154.001 11.3806Z" fill="black" fill-opacity="0.2"/>
<path d="M153.188 10.5685L153.365 10.3917L153.188 10.2149L153.012 10.3917L153.188 10.5685ZM154.001 11.3806L154.177 11.5574L154.354 11.3806L154.177 11.2038L154.001 11.3806ZM146.283 17.4734L146.107 17.6502L146.283 17.827L146.46 17.6502L146.283 17.4734ZM139.379 10.5685L139.555 10.3918L139.379 10.215L139.202 10.3918L139.379 10.5685ZM138.566 11.3807L138.39 11.2039L138.213 11.3807L138.39 11.5574L138.566 11.3807ZM145.471 18.2856L145.648 18.4624L145.825 18.2856L145.648 18.1088L145.471 18.2856ZM138.57 25.187L138.393 25.0102L138.216 25.187L138.393 25.3637L138.57 25.187ZM139.382 25.9991L139.205 26.1759L139.382 26.3526L139.559 26.1759L139.382 25.9991ZM146.283 19.0977L146.46 18.9209L146.283 18.7442L146.107 18.9209L146.283 19.0977ZM153.185 25.9991L153.008 26.1759L153.185 26.3527L153.362 26.1759L153.185 25.9991ZM153.997 25.187L154.174 25.3638L154.351 25.187L154.174 25.0102L153.997 25.187ZM147.096 18.2856L146.919 18.1088L146.742 18.2856L146.919 18.4624L147.096 18.2856ZM153.012 10.7453L153.824 11.5574L154.177 11.2038L153.365 10.3917L153.012 10.7453ZM146.46 17.6502L153.365 10.7453L153.012 10.3917L146.107 17.2967L146.46 17.6502ZM139.202 10.7453L146.107 17.6502L146.46 17.2967L139.555 10.3918L139.202 10.7453ZM138.743 11.5574L139.555 10.7453L139.202 10.3918L138.39 11.2039L138.743 11.5574ZM145.648 18.1088L138.743 11.2039L138.39 11.5574L145.295 18.4624L145.648 18.1088ZM138.747 25.3637L145.648 18.4624L145.295 18.1088L138.393 25.0102L138.747 25.3637ZM139.559 25.8223L138.747 25.0102L138.393 25.3637L139.205 26.1759L139.559 25.8223ZM146.107 18.9209L139.205 25.8223L139.559 26.1759L146.46 19.2745L146.107 18.9209ZM153.362 25.8224L146.46 18.9209L146.107 19.2745L153.008 26.1759L153.362 25.8224ZM153.82 25.0102L153.008 25.8224L153.362 26.1759L154.174 25.3638L153.82 25.0102ZM146.919 18.4624L153.82 25.3638L154.174 25.0102L147.272 18.1088L146.919 18.4624ZM153.824 11.2038L146.919 18.1088L147.272 18.4624L154.177 11.5574L153.824 11.2038Z" fill="#0A2926" mask="url(#path-2-outside-1_3572_2991)"/>
<path d="M153.188 10.5685L153.365 10.3917L153.188 10.2149L153.012 10.3917L153.188 10.5685ZM154.001 11.3806L154.177 11.5574L154.354 11.3806L154.177 11.2038L154.001 11.3806ZM146.283 17.4734L146.107 17.6502L146.283 17.827L146.46 17.6502L146.283 17.4734ZM139.379 10.5685L139.555 10.3918L139.379 10.215L139.202 10.3918L139.379 10.5685ZM138.566 11.3807L138.39 11.2039L138.213 11.3807L138.39 11.5574L138.566 11.3807ZM145.471 18.2856L145.648 18.4624L145.825 18.2856L145.648 18.1088L145.471 18.2856ZM138.57 25.187L138.393 25.0102L138.216 25.187L138.393 25.3637L138.57 25.187ZM139.382 25.9991L139.205 26.1759L139.382 26.3526L139.559 26.1759L139.382 25.9991ZM146.283 19.0977L146.46 18.9209L146.283 18.7442L146.107 18.9209L146.283 19.0977ZM153.185 25.9991L153.008 26.1759L153.185 26.3527L153.362 26.1759L153.185 25.9991ZM153.997 25.187L154.174 25.3638L154.351 25.187L154.174 25.0102L153.997 25.187ZM147.096 18.2856L146.919 18.1088L146.742 18.2856L146.919 18.4624L147.096 18.2856ZM153.012 10.7453L153.824 11.5574L154.177 11.2038L153.365 10.3917L153.012 10.7453ZM146.46 17.6502L153.365 10.7453L153.012 10.3917L146.107 17.2967L146.46 17.6502ZM139.202 10.7453L146.107 17.6502L146.46 17.2967L139.555 10.3918L139.202 10.7453ZM138.743 11.5574L139.555 10.7453L139.202 10.3918L138.39 11.2039L138.743 11.5574ZM145.648 18.1088L138.743 11.2039L138.39 11.5574L145.295 18.4624L145.648 18.1088ZM138.747 25.3637L145.648 18.4624L145.295 18.1088L138.393 25.0102L138.747 25.3637ZM139.559 25.8223L138.747 25.0102L138.393 25.3637L139.205 26.1759L139.559 25.8223ZM146.107 18.9209L139.205 25.8223L139.559 26.1759L146.46 19.2745L146.107 18.9209ZM153.362 25.8224L146.46 18.9209L146.107 19.2745L153.008 26.1759L153.362 25.8224ZM153.82 25.0102L153.008 25.8224L153.362 26.1759L154.174 25.3638L153.82 25.0102ZM146.919 18.4624L153.82 25.3638L154.174 25.0102L147.272 18.1088L146.919 18.4624ZM153.824 11.2038L146.919 18.1088L147.272 18.4624L154.177 11.5574L153.824 11.2038Z" fill="black" fill-opacity="0.2" mask="url(#path-2-outside-1_3572_2991)"/>
<path fill-rule="evenodd" clip-rule="evenodd" d="M110.482 23.5733H111.5V25.6094L95.9141 25.6104V23.5743H110.483L110.482 23.5733ZM93.0317 16.9818H94.0513V19.0179L92 19.0189V16.9828H93.0317V16.9818ZM93.0317 10.3903H94.0513V12.4264L92 12.4274V10.3913H93.0317V10.3903ZM93.0317 23.5733H94.0513V25.6094L92 25.6104V23.5743H93.0317V23.5733ZM110.482 16.9818H111.5V19.0179L95.9141 19.0189V16.9828H110.483L110.482 16.9818ZM110.482 10.3903H111.5V12.4264L95.9141 12.4274V10.3913H110.483L110.482 10.3903Z" fill="#0A2926"/>
<path fill-rule="evenodd" clip-rule="evenodd" d="M110.482 23.5733H111.5V25.6094L95.9141 25.6104V23.5743H110.483L110.482 23.5733ZM93.0317 16.9818H94.0513V19.0179L92 19.0189V16.9828H93.0317V16.9818ZM93.0317 10.3903H94.0513V12.4264L92 12.4274V10.3913H93.0317V10.3903ZM93.0317 23.5733H94.0513V25.6094L92 25.6104V23.5743H93.0317V23.5733ZM110.482 16.9818H111.5V19.0179L95.9141 19.0189V16.9828H110.483L110.482 16.9818ZM110.482 10.3903H111.5V12.4264L95.9141 12.4274V10.3913H110.483L110.482 10.3903Z" fill="black" fill-opacity="0.2"/>
</svg>
