<svg xmlns="http://www.w3.org/2000/svg" width="16" height="21" viewBox="0 0 16 21" fill="none">
  <path d="M13.6716 3.60944L13.1328 18.157C13.1236 18.4067 12.9037 18.6182 12.6529 18.6182H3.34384C3.09334 18.6182 2.87317 18.4059 2.86395 18.157L2.32515 3.60944C2.31028 3.20805 1.97284 2.89471 1.57146 2.90958C1.17007 2.92445 0.856735 3.26189 0.871602 3.66327L1.4104 18.2109C1.44857 19.2415 2.31084 20.0727 3.34384 20.0727H12.6529C13.6854 20.0727 14.5481 19.243 14.5864 18.2109L15.1252 3.66327C15.14 3.26189 14.8267 2.92445 14.4253 2.90958C14.0239 2.89471 13.6865 3.20805 13.6716 3.60944Z" fill="#08211E"/>
  <path d="M7.41992 6.54544V16.4364C7.41992 16.7577 7.68041 17.0182 8.00174 17.0182C8.32307 17.0182 8.58356 16.7577 8.58356 16.4364V6.54544C8.58356 6.22411 8.32307 5.96362 8.00174 5.96362C7.68041 5.96362 7.41992 6.22411 7.41992 6.54544Z" fill="#08211E"/>
  <path d="M4.21901 6.56255L4.50992 16.4535C4.51936 16.7747 4.7874 17.0274 5.10859 17.0179C5.42978 17.0085 5.68249 16.7404 5.67305 16.4192L5.38214 6.52834C5.37269 6.20715 5.10466 5.95443 4.78347 5.96388C4.46228 5.97333 4.20956 6.24136 4.21901 6.56255Z" fill="#08211E"/>
  <path d="M10.6173 6.52834L10.3264 16.4192C10.317 16.7404 10.5697 17.0085 10.8909 17.0179C11.2121 17.0274 11.4801 16.7747 11.4896 16.4535L11.7805 6.56255C11.7899 6.24136 11.5372 5.97333 11.216 5.96388C10.8948 5.95443 10.6268 6.20715 10.6173 6.52834Z" fill="#08211E"/>
  <path d="M0.727273 3.92728H15.2727C15.6744 3.92728 16 3.60167 16 3.20001C16 2.79834 15.6744 2.47273 15.2727 2.47273H0.727273C0.325611 2.47273 0 2.79834 0 3.20001C0 3.60167 0.325611 3.92728 0.727273 3.92728Z" fill="#08211E"/>
  <path d="M5.79116 2.96343L6.094 1.9035C6.15886 1.67648 6.45314 1.45455 6.68939 1.45455H9.31252C9.54893 1.45455 9.843 1.67629 9.90792 1.9035L10.2108 2.96343L11.6093 2.56384L11.3065 1.50391C11.0631 0.652169 10.1983 0 9.31252 0H6.68939C5.80376 0 4.9387 0.652404 4.69542 1.50391L4.39258 2.56384L5.79116 2.96343Z" fill="#08211E"/>
</svg>