<svg width="36" height="36" viewBox="0 0 36 36" fill="none" xmlns="http://www.w3.org/2000/svg">
<g id="Group 107">
<circle id="Ellipse 22" cx="18" cy="18" r="18" fill="white"/>
<g id="Group 106">
<g id="Vector">
<path d="M25.8077 9H14.1154C12.9065 9 11.9231 9.9834 11.9231 11.1923V11.9231H11.1923C9.9834 11.9231 9 12.9065 9 14.1154V25.8077C9 27.0166 9.9834 28 11.1923 28H22.8846C24.0935 28 25.0769 27.0166 25.0769 25.8077V25.0769H25.8077C27.0166 25.0769 28 24.0935 28 22.8846V11.1923C28 9.9834 27.0166 9 25.8077 9ZM23.6154 25.8077C23.6154 26.2106 23.2875 26.5385 22.8846 26.5385H11.1923C10.7894 26.5385 10.4615 26.2106 10.4615 25.8077V14.1154C10.4615 13.7125 10.7894 13.3846 11.1923 13.3846H22.8846C23.2875 13.3846 23.6154 13.7125 23.6154 14.1154V25.8077ZM26.5385 22.8846C26.5385 23.2875 26.2106 23.6154 25.8077 23.6154H25.0769V14.1154C25.0769 12.9065 24.0935 11.9231 22.8846 11.9231H13.3846V11.1923C13.3846 10.7894 13.7125 10.4615 14.1154 10.4615H25.8077C26.2106 10.4615 26.5385 10.7894 26.5385 11.1923V22.8846Z" fill="#0A2926"/>
<path d="M25.8077 9H14.1154C12.9065 9 11.9231 9.9834 11.9231 11.1923V11.9231H11.1923C9.9834 11.9231 9 12.9065 9 14.1154V25.8077C9 27.0166 9.9834 28 11.1923 28H22.8846C24.0935 28 25.0769 27.0166 25.0769 25.8077V25.0769H25.8077C27.0166 25.0769 28 24.0935 28 22.8846V11.1923C28 9.9834 27.0166 9 25.8077 9ZM23.6154 25.8077C23.6154 26.2106 23.2875 26.5385 22.8846 26.5385H11.1923C10.7894 26.5385 10.4615 26.2106 10.4615 25.8077V14.1154C10.4615 13.7125 10.7894 13.3846 11.1923 13.3846H22.8846C23.2875 13.3846 23.6154 13.7125 23.6154 14.1154V25.8077ZM26.5385 22.8846C26.5385 23.2875 26.2106 23.6154 25.8077 23.6154H25.0769V14.1154C25.0769 12.9065 24.0935 11.9231 22.8846 11.9231H13.3846V11.1923C13.3846 10.7894 13.7125 10.4615 14.1154 10.4615H25.8077C26.2106 10.4615 26.5385 10.7894 26.5385 11.1923V22.8846Z" fill="black" fill-opacity="0.2"/>
</g>
<g id="Vector_2">
<path d="M12.3571 16H21.6429C21.8401 16 22 15.8881 22 15.75V15.25C22 15.1119 21.8401 15 21.6429 15H12.3571C12.1599 15 12 15.1119 12 15.25V15.75C12 15.8881 12.1599 16 12.3571 16Z" fill="#0A2926"/>
<path d="M12.3571 16H21.6429C21.8401 16 22 15.8881 22 15.75V15.25C22 15.1119 21.8401 15 21.6429 15H12.3571C12.1599 15 12 15.1119 12 15.25V15.75C12 15.8881 12.1599 16 12.3571 16Z" fill="black" fill-opacity="0.2"/>
</g>
<g id="Vector_3">
<path d="M12.3571 19H21.6429C21.8401 19 22 18.8881 22 18.75V18.25C22 18.1119 21.8401 18 21.6429 18H12.3571C12.1599 18 12 18.1119 12 18.25V18.75C12 18.8881 12.1599 19 12.3571 19Z" fill="#0A2926"/>
<path d="M12.3571 19H21.6429C21.8401 19 22 18.8881 22 18.75V18.25C22 18.1119 21.8401 18 21.6429 18H12.3571C12.1599 18 12 18.1119 12 18.25V18.75C12 18.8881 12.1599 19 12.3571 19Z" fill="black" fill-opacity="0.2"/>
</g>
<g id="Vector_4">
<path d="M12.3571 22H21.6429C21.8401 22 22 21.8881 22 21.75V21.25C22 21.1119 21.8401 21 21.6429 21H12.3571C12.1599 21 12 21.1119 12 21.25V21.75C12 21.8881 12.1599 22 12.3571 22Z" fill="#0A2926"/>
<path d="M12.3571 22H21.6429C21.8401 22 22 21.8881 22 21.75V21.25C22 21.1119 21.8401 21 21.6429 21H12.3571C12.1599 21 12 21.1119 12 21.25V21.75C12 21.8881 12.1599 22 12.3571 22Z" fill="black" fill-opacity="0.2"/>
</g>
<g id="Vector_5">
<path d="M12.2143 25H17.7857C17.904 25 18 24.8881 18 24.75V24.25C18 24.1119 17.904 24 17.7857 24H12.2143C12.096 24 12 24.1119 12 24.25V24.75C12 24.8881 12.096 25 12.2143 25Z" fill="#0A2926"/>
<path d="M12.2143 25H17.7857C17.904 25 18 24.8881 18 24.75V24.25C18 24.1119 17.904 24 17.7857 24H12.2143C12.096 24 12 24.1119 12 24.25V24.75C12 24.8881 12.096 25 12.2143 25Z" fill="black" fill-opacity="0.2"/>
</g>
</g>
</g>
</svg>
