<svg width="22" height="20" viewBox="0 0 22 20" fill="none" xmlns="http://www.w3.org/2000/svg">
<path d="M16.0796 6.64347H19.4783L15.7508 2.26866L16.0796 6.64347ZM16.0796 6.64347L14.2558 2.12499H15.4426C15.559 2.12499 15.6718 2.17613 15.7508 2.26856L16.0796 6.64347ZM5.29874 1.45788L5.29867 1.45796L1.27608 6.17771L1.27606 6.17774C0.742337 6.80428 0.74113 7.72898 1.27355 8.35676C1.27369 8.35692 1.27382 8.35709 1.27396 8.35725L9.73444 18.5341L9.73594 18.536L9.73835 18.539L9.7383 18.5391L9.74081 18.542C10.403 19.3193 11.597 19.3193 12.2592 18.542L12.2592 18.542L12.2616 18.539L12.2641 18.536L12.2655 18.5341L20.726 8.35633C20.7261 8.35612 20.7263 8.35591 20.7265 8.35571C21.2589 7.72884 21.2576 6.80417 20.7239 6.17771L20.7239 6.17769L16.7015 1.45797L16.7014 1.45788C16.387 1.08963 15.9286 0.875 15.4424 0.875H6.55782C6.07157 0.875 5.61319 1.08962 5.29874 1.45788ZM7.48952 6.64347L9.11165 2.12499H12.907L14.7309 6.64347H7.48952ZM14.7149 7.89346L11.0172 16.6265L7.52482 7.89346H14.7149ZM7.78368 2.12499L6.16154 6.64347H2.52233L6.24982 2.26866C6.24984 2.26864 6.24986 2.26862 6.24987 2.2686C6.32883 2.17615 6.44161 2.12499 6.55807 2.12499H7.78368ZM6.17859 7.89346L9.57386 16.3853L2.51503 7.89346H6.17859ZM12.5288 16.2625L16.0723 7.89346H19.4857L12.5288 16.2625Z" fill="#0A2926"/>
<path d="M16.0796 6.64347H19.4783L15.7508 2.26866L16.0796 6.64347ZM16.0796 6.64347L14.2558 2.12499H15.4426C15.559 2.12499 15.6718 2.17613 15.7508 2.26856L16.0796 6.64347ZM5.29874 1.45788L5.29867 1.45796L1.27608 6.17771L1.27606 6.17774C0.742337 6.80428 0.74113 7.72898 1.27355 8.35676C1.27369 8.35692 1.27382 8.35709 1.27396 8.35725L9.73444 18.5341L9.73594 18.536L9.73835 18.539L9.7383 18.5391L9.74081 18.542C10.403 19.3193 11.597 19.3193 12.2592 18.542L12.2592 18.542L12.2616 18.539L12.2641 18.536L12.2655 18.5341L20.726 8.35633C20.7261 8.35612 20.7263 8.35591 20.7265 8.35571C21.2589 7.72884 21.2576 6.80417 20.7239 6.17771L20.7239 6.17769L16.7015 1.45797L16.7014 1.45788C16.387 1.08963 15.9286 0.875 15.4424 0.875H6.55782C6.07157 0.875 5.61319 1.08962 5.29874 1.45788ZM7.48952 6.64347L9.11165 2.12499H12.907L14.7309 6.64347H7.48952ZM14.7149 7.89346L11.0172 16.6265L7.52482 7.89346H14.7149ZM7.78368 2.12499L6.16154 6.64347H2.52233L6.24982 2.26866C6.24984 2.26864 6.24986 2.26862 6.24987 2.2686C6.32883 2.17615 6.44161 2.12499 6.55807 2.12499H7.78368ZM6.17859 7.89346L9.57386 16.3853L2.51503 7.89346H6.17859ZM12.5288 16.2625L16.0723 7.89346H19.4857L12.5288 16.2625Z" fill="black" fill-opacity="0.2"/>
<path d="M16.0796 6.64347H19.4783L15.7508 2.26866L16.0796 6.64347ZM16.0796 6.64347L14.2558 2.12499H15.4426C15.559 2.12499 15.6718 2.17613 15.7508 2.26856L16.0796 6.64347ZM5.29874 1.45788L5.29867 1.45796L1.27608 6.17771L1.27606 6.17774C0.742337 6.80428 0.74113 7.72898 1.27355 8.35676C1.27369 8.35692 1.27382 8.35709 1.27396 8.35725L9.73444 18.5341L9.73594 18.536L9.73835 18.539L9.7383 18.5391L9.74081 18.542C10.403 19.3193 11.597 19.3193 12.2592 18.542L12.2592 18.542L12.2616 18.539L12.2641 18.536L12.2655 18.5341L20.726 8.35633C20.7261 8.35612 20.7263 8.35591 20.7265 8.35571C21.2589 7.72884 21.2576 6.80417 20.7239 6.17771L20.7239 6.17769L16.7015 1.45797L16.7014 1.45788C16.387 1.08963 15.9286 0.875 15.4424 0.875H6.55782C6.07157 0.875 5.61319 1.08962 5.29874 1.45788ZM7.48952 6.64347L9.11165 2.12499H12.907L14.7309 6.64347H7.48952ZM14.7149 7.89346L11.0172 16.6265L7.52482 7.89346H14.7149ZM7.78368 2.12499L6.16154 6.64347H2.52233L6.24982 2.26866C6.24984 2.26864 6.24986 2.26862 6.24987 2.2686C6.32883 2.17615 6.44161 2.12499 6.55807 2.12499H7.78368ZM6.17859 7.89346L9.57386 16.3853L2.51503 7.89346H6.17859ZM12.5288 16.2625L16.0723 7.89346H19.4857L12.5288 16.2625Z" stroke="#0A2926" stroke-width="0.25"/>
<path d="M16.0796 6.64347H19.4783L15.7508 2.26866L16.0796 6.64347ZM16.0796 6.64347L14.2558 2.12499H15.4426C15.559 2.12499 15.6718 2.17613 15.7508 2.26856L16.0796 6.64347ZM5.29874 1.45788L5.29867 1.45796L1.27608 6.17771L1.27606 6.17774C0.742337 6.80428 0.74113 7.72898 1.27355 8.35676C1.27369 8.35692 1.27382 8.35709 1.27396 8.35725L9.73444 18.5341L9.73594 18.536L9.73835 18.539L9.7383 18.5391L9.74081 18.542C10.403 19.3193 11.597 19.3193 12.2592 18.542L12.2592 18.542L12.2616 18.539L12.2641 18.536L12.2655 18.5341L20.726 8.35633C20.7261 8.35612 20.7263 8.35591 20.7265 8.35571C21.2589 7.72884 21.2576 6.80417 20.7239 6.17771L20.7239 6.17769L16.7015 1.45797L16.7014 1.45788C16.387 1.08963 15.9286 0.875 15.4424 0.875H6.55782C6.07157 0.875 5.61319 1.08962 5.29874 1.45788ZM7.48952 6.64347L9.11165 2.12499H12.907L14.7309 6.64347H7.48952ZM14.7149 7.89346L11.0172 16.6265L7.52482 7.89346H14.7149ZM7.78368 2.12499L6.16154 6.64347H2.52233L6.24982 2.26866C6.24984 2.26864 6.24986 2.26862 6.24987 2.2686C6.32883 2.17615 6.44161 2.12499 6.55807 2.12499H7.78368ZM6.17859 7.89346L9.57386 16.3853L2.51503 7.89346H6.17859ZM12.5288 16.2625L16.0723 7.89346H19.4857L12.5288 16.2625Z" stroke="black" stroke-opacity="0.2" stroke-width="0.25"/>
</svg>
