<svg xmlns="http://www.w3.org/2000/svg" width="36" height="36" viewBox="0 0 36 36" fill="none">
  <circle cx="18" cy="18" r="18" fill="#E65909"/>
  <path d="M17.8701 9.5V9.9082H8.9043V26.0918H25.0967V17.1309H25.5V26.2959C25.5 26.4068 25.4101 26.4978 25.2988 26.498H24.7988V26.5H8.70215C8.6367 26.4999 8.58981 26.4756 8.55859 26.4424C8.52766 26.4092 8.49603 26.3497 8.5 26.2549L8.50098 26.2441V9.7041C8.50098 9.59308 8.59081 9.50211 8.70215 9.50195H9.20215V9.5H17.8701ZM25.0986 11.7969L17.3887 19.5049L15.0771 19.9238L15.459 17.6768L15.7969 17.3115L15.8076 17.2988L23.2051 9.90332L25.0986 11.7969Z" fill="white" stroke="white"/>
</svg>