<svg width="36" height="36" viewBox="0 0 36 36" fill="none" xmlns="http://www.w3.org/2000/svg">
<g id="Group 110">
<circle id="Ellipse 23" cx="18" cy="18" r="18" fill="white"/>
<g id="Vector">
<path d="M16.8088 17.2981L24.2052 9.90351L26.0993 11.7971L18.3885 19.5058L16.0776 19.9243L16.4597 17.6767L16.7966 17.3113L16.8088 17.2981ZM10.2024 9.5H18.8703V9.90858H10.404H9.90403V10.4086V25.5923V26.0923H10.404H25.5965H26.0965V25.5923V17.1309L26.5 17.1309V26.2961C26.5 26.4072 26.4098 26.4976 26.2983 26.4976H25.7983V26.5H9.70243C9.63653 26.5 9.58943 26.4754 9.55816 26.4419C9.52723 26.4088 9.49637 26.3498 9.50034 26.255L9.50078 26.2446V26.2341V9.70388C9.50078 9.59277 9.59096 9.50242 9.70243 9.50242H10.2024V9.5Z" fill="#0A2926"/>
<path d="M16.8088 17.2981L24.2052 9.90351L26.0993 11.7971L18.3885 19.5058L16.0776 19.9243L16.4597 17.6767L16.7966 17.3113L16.8088 17.2981ZM10.2024 9.5H18.8703V9.90858H10.404H9.90403V10.4086V25.5923V26.0923H10.404H25.5965H26.0965V25.5923V17.1309L26.5 17.1309V26.2961C26.5 26.4072 26.4098 26.4976 26.2983 26.4976H25.7983V26.5H9.70243C9.63653 26.5 9.58943 26.4754 9.55816 26.4419C9.52723 26.4088 9.49637 26.3498 9.50034 26.255L9.50078 26.2446V26.2341V9.70388C9.50078 9.59277 9.59096 9.50242 9.70243 9.50242H10.2024V9.5Z" fill="black" fill-opacity="0.2"/>
<path d="M16.8088 17.2981L24.2052 9.90351L26.0993 11.7971L18.3885 19.5058L16.0776 19.9243L16.4597 17.6767L16.7966 17.3113L16.8088 17.2981ZM10.2024 9.5H18.8703V9.90858H10.404H9.90403V10.4086V25.5923V26.0923H10.404H25.5965H26.0965V25.5923V17.1309L26.5 17.1309V26.2961C26.5 26.4072 26.4098 26.4976 26.2983 26.4976H25.7983V26.5H9.70243C9.63653 26.5 9.58943 26.4754 9.55816 26.4419C9.52723 26.4088 9.49637 26.3498 9.50034 26.255L9.50078 26.2446V26.2341V9.70388C9.50078 9.59277 9.59096 9.50242 9.70243 9.50242H10.2024V9.5Z" stroke="#0A2926"/>
<path d="M16.8088 17.2981L24.2052 9.90351L26.0993 11.7971L18.3885 19.5058L16.0776 19.9243L16.4597 17.6767L16.7966 17.3113L16.8088 17.2981ZM10.2024 9.5H18.8703V9.90858H10.404H9.90403V10.4086V25.5923V26.0923H10.404H25.5965H26.0965V25.5923V17.1309L26.5 17.1309V26.2961C26.5 26.4072 26.4098 26.4976 26.2983 26.4976H25.7983V26.5H9.70243C9.63653 26.5 9.58943 26.4754 9.55816 26.4419C9.52723 26.4088 9.49637 26.3498 9.50034 26.255L9.50078 26.2446V26.2341V9.70388C9.50078 9.59277 9.59096 9.50242 9.70243 9.50242H10.2024V9.5Z" stroke="black" stroke-opacity="0.2"/>
</g>
</g>
</svg>
