<svg width="20" height="17" viewBox="0 0 20 17" fill="none" xmlns="http://www.w3.org/2000/svg">
<path d="M14.8097 0.00798369C14.0646 -0.0314838 13.319 0.0762299 12.6192 0.324431C11.9194 0.572633 11.2804 0.956018 10.7419 1.45076C10.4659 1.70076 10.2173 1.97716 10 2.27565C9.7829 1.97608 9.53429 1.69864 9.25807 1.44767C8.71906 0.953787 8.07991 0.571169 7.3802 0.323523C6.6805 0.0758774 5.93514 -0.0315205 5.19033 0.00798369C2.28066 0.162457 1.38059e-05 2.57223 1.38059e-05 5.50413C-0.00205103 6.52929 0.227522 7.54274 0.672975 8.47492C1.11843 9.40709 1.76921 10.2359 2.58066 10.9045L10 17L17.4193 10.9045C18.2308 10.2359 18.8816 9.40709 19.327 8.47492C19.7725 7.54274 20.0021 6.52929 20 5.50413C20 2.57223 17.7193 0.162457 14.8097 0.00798369ZM16.1484 9.48953L10 14.5284L3.85162 9.49571C3.25027 9.00232 2.76762 8.39005 2.43685 7.70101C2.10608 7.01197 1.93504 6.2625 1.9355 5.50413C1.9355 3.59175 3.44194 1.96052 5.29033 1.86166H5.48388C6.42497 1.86166 7.32751 2.2197 7.99296 2.85703C8.65841 3.49435 9.03226 4.35875 9.03226 5.26006V5.87795H10.9677V5.26006C10.967 4.79774 11.0648 4.34014 11.2551 3.91526C11.4454 3.49038 11.7242 3.10716 12.0745 2.78904C12.4248 2.47092 12.8392 2.2246 13.2923 2.06514C13.7454 1.90568 14.2277 1.83644 14.7097 1.86166C16.5613 1.95434 18.0645 3.58557 18.0645 5.50104C18.0654 6.25993 17.8946 7.01001 17.5638 7.69961C17.233 8.38922 16.7501 9.00198 16.1484 9.49571V9.48953Z" fill="#0A2926"/>
<path d="M14.8097 0.00798369C14.0646 -0.0314838 13.319 0.0762299 12.6192 0.324431C11.9194 0.572633 11.2804 0.956018 10.7419 1.45076C10.4659 1.70076 10.2173 1.97716 10 2.27565C9.7829 1.97608 9.53429 1.69864 9.25807 1.44767C8.71906 0.953787 8.07991 0.571169 7.3802 0.323523C6.6805 0.0758774 5.93514 -0.0315205 5.19033 0.00798369C2.28066 0.162457 1.38059e-05 2.57223 1.38059e-05 5.50413C-0.00205103 6.52929 0.227522 7.54274 0.672975 8.47492C1.11843 9.40709 1.76921 10.2359 2.58066 10.9045L10 17L17.4193 10.9045C18.2308 10.2359 18.8816 9.40709 19.327 8.47492C19.7725 7.54274 20.0021 6.52929 20 5.50413C20 2.57223 17.7193 0.162457 14.8097 0.00798369ZM16.1484 9.48953L10 14.5284L3.85162 9.49571C3.25027 9.00232 2.76762 8.39005 2.43685 7.70101C2.10608 7.01197 1.93504 6.2625 1.9355 5.50413C1.9355 3.59175 3.44194 1.96052 5.29033 1.86166H5.48388C6.42497 1.86166 7.32751 2.2197 7.99296 2.85703C8.65841 3.49435 9.03226 4.35875 9.03226 5.26006V5.87795H10.9677V5.26006C10.967 4.79774 11.0648 4.34014 11.2551 3.91526C11.4454 3.49038 11.7242 3.10716 12.0745 2.78904C12.4248 2.47092 12.8392 2.2246 13.2923 2.06514C13.7454 1.90568 14.2277 1.83644 14.7097 1.86166C16.5613 1.95434 18.0645 3.58557 18.0645 5.50104C18.0654 6.25993 17.8946 7.01001 17.5638 7.69961C17.233 8.38922 16.7501 9.00198 16.1484 9.49571V9.48953Z" fill="black" fill-opacity="0.2"/>
</svg>
