<svg width="178" height="21" viewBox="0 0 178 21" fill="none" xmlns="http://www.w3.org/2000/svg">
<path d="M38.132 4.9659C38.132 8.24897 34.4243 10.7393 29.3352 10.7393V10.2055C33.0155 10.2055 35.4644 8.13989 35.4644 5.1164C35.4644 2.55784 33.7132 0.793219 31.182 0.793219C29.3352 0.793219 28.9111 1.72366 28.9111 4.69231V14.7066C28.9111 17.6479 29.4448 18.797 30.7854 18.797C30.8676 18.797 30.9084 18.8933 30.9084 18.9884C30.9084 19.0846 30.8676 19.1937 30.7854 19.1937H24.9163C24.834 19.1937 24.7932 19.0846 24.7932 18.975C24.7932 18.8793 24.8206 18.797 24.9163 18.797C26.1203 18.797 26.517 17.7709 26.517 14.9668V4.69231C26.517 1.88758 26.1203 0.875469 24.9163 0.875469C24.8206 0.875469 24.7932 0.779219 24.7932 0.68355C24.7932 0.574463 24.834 0.464794 24.9163 0.464794H28.3773C29.4722 0.464794 30.5118 0.204622 31.8389 0.204622C35.4644 0.204622 38.132 2.16117 38.132 4.9659Z" fill="white"/>
<path d="M37.9935 15.8968C37.9935 13.4888 40.7434 11.1495 45.6686 9.54884V9.3435C45.6686 7.55146 44.6017 6.40227 42.9187 6.40227C41.8518 6.40227 40.6886 6.85378 39.6491 7.70196L39.5802 7.72938C39.4711 7.72938 39.3481 7.57888 39.3481 7.48321C39.3481 7.45579 39.3615 7.42837 39.3755 7.41437C40.7983 5.99159 42.6586 5.37616 44.3141 5.37616C46.6259 5.40358 48.0627 6.90861 48.0627 9.17958V14.761C48.0627 17.5798 48.4594 18.5919 49.6634 18.5919C49.7456 18.5919 49.7865 18.6881 49.7865 18.7832C49.7865 18.8929 49.7456 19.0026 49.6634 19.0026H47.0506C46.0927 19.0026 45.6686 18.5645 45.6686 17.5249V16.9229C44.8747 18.2775 43.3288 19.2621 41.6739 19.2621C39.6217 19.2621 37.9935 17.7571 37.9935 15.8968ZM45.6686 15.0078V10.1509C43.2197 11.0673 40.5789 12.8733 40.5789 15.2266C40.5789 16.7176 41.6739 17.8942 43.0826 17.8942C44.5468 17.8942 45.6686 16.6493 45.6686 15.0078Z" fill="white"/>
<path d="M62.0166 6.74423L61.4829 9.95905C61.4695 10.0687 61.3872 10.1096 61.2915 10.1096C61.1959 10.1096 61.0862 10.0413 61.0862 9.93222C61.0862 7.579 59.4855 5.93746 57.0914 5.93746C54.4104 5.93746 52.7548 8.00309 52.7548 11.1082C52.7548 14.8843 55.1763 17.689 58.3229 17.689C60.0193 17.689 61.442 16.8548 62.208 15.3083C62.2494 15.2267 62.3311 15.1853 62.3999 15.1853C62.509 15.1853 62.6047 15.2541 62.6047 15.3632V15.4046C62.0441 17.689 59.8139 19.2623 57.064 19.2623C53.288 19.2623 50.1963 16.2388 50.1963 12.3123C50.1963 8.37235 53.2606 5.34886 57.7343 5.34886C59.5129 5.34886 61.0045 5.84121 62.0166 6.74423Z" fill="white"/>
<path d="M63.8756 19.0025C63.7934 19.0025 63.7391 18.8928 63.7391 18.7837C63.7391 18.6881 63.78 18.5918 63.8756 18.5918C65.0657 18.5918 65.4629 17.5797 65.4629 14.761V9.84979C65.4629 7.04506 65.0657 6.56672 63.8756 6.56672C63.78 6.56672 63.7391 6.48446 63.7391 6.3888C63.7391 6.27913 63.7934 6.16946 63.8756 6.15604L67.4189 5.40352H67.5286C67.7339 5.40352 67.8704 5.58144 67.8704 5.8142V14.761C67.8704 17.5797 68.2671 18.5918 69.4577 18.5918C69.5534 18.5918 69.5942 18.6881 69.5942 18.7837C69.5942 18.8928 69.5394 19.0025 69.4577 19.0025H63.8756ZM65.1479 2.3252C65.1479 1.4496 65.7914 0.806749 66.6664 0.806749C67.542 0.806749 68.1854 1.4496 68.1854 2.3252C68.1854 3.2148 67.542 3.85765 66.6664 3.85765C65.7914 3.85765 65.1479 3.2148 65.1479 2.3252Z" fill="white"/>
<path d="M71.2355 19.0025C71.1533 19.0025 71.099 18.8928 71.099 18.7837C71.099 18.6881 71.1398 18.5918 71.2355 18.5918C72.4395 18.5918 72.8362 17.5797 72.8362 14.761V6.15604H71.2903C71.1673 6.15604 71.1124 6.01895 71.1124 5.88245C71.1124 5.75936 71.1673 5.62286 71.2903 5.62286H72.8362V4.19949C72.8362 1.95594 74.6697 -2.09808e-05 77.146 -2.09808e-05C78.1581 -2.09808e-05 79.1159 0.32782 79.7588 0.861582L79.5809 3.80282C79.5674 3.91249 79.4712 3.98074 79.3621 3.98074C79.2799 3.98074 79.1842 3.9259 79.1702 3.80282C78.9654 1.90111 78.0076 0.573992 76.8584 0.573992C75.9005 0.573992 75.2303 1.50443 75.2303 2.81813V5.62286H78.0076C78.1307 5.62286 78.1855 5.75936 78.1855 5.88245C78.1855 6.01895 78.1307 6.15604 78.0076 6.15604H75.2303V14.5014C75.2303 17.4426 75.764 18.5918 77.0911 18.5918C77.1868 18.5918 77.2276 18.6881 77.2276 18.7837C77.2276 18.8928 77.1728 19.0025 77.0911 19.0025H71.2355Z" fill="white"/>
<path d="M80.3323 19.0025C80.2501 19.0025 80.1958 18.8928 80.1958 18.7837C80.1958 18.6881 80.2366 18.5918 80.3323 18.5918C81.5223 18.5918 81.9196 17.5797 81.9196 14.761V9.84979C81.9196 7.04506 81.5223 6.56672 80.3323 6.56672C80.2366 6.56672 80.1958 6.48446 80.1958 6.3888C80.1958 6.27913 80.2501 6.16946 80.3323 6.15604L83.8756 5.40352H83.9852C84.1906 5.40352 84.3271 5.58144 84.3271 5.8142V14.761C84.3271 17.5797 84.7237 18.5918 85.9144 18.5918C86.01 18.5918 86.0509 18.6881 86.0509 18.7837C86.0509 18.8928 85.996 19.0025 85.9144 19.0025H80.3323ZM81.6046 2.3252C81.6046 1.4496 82.248 0.806749 83.123 0.806749C83.9986 0.806749 84.6421 1.4496 84.6421 2.3252C84.6421 3.2148 83.9986 3.85765 83.123 3.85765C82.248 3.85765 81.6046 3.2148 81.6046 2.3252Z" fill="white"/>
<path d="M98.4176 6.74423L97.8839 9.95905C97.8705 10.0687 97.7882 10.1096 97.6925 10.1096C97.5969 10.1096 97.4872 10.0413 97.4872 9.93222C97.4872 7.579 95.8865 5.93746 93.4924 5.93746C90.8114 5.93746 89.1558 8.00309 89.1558 11.1082C89.1558 14.8843 91.5773 17.689 94.7239 17.689C96.4203 17.689 97.843 16.8548 98.609 15.3083C98.6504 15.2267 98.7321 15.1853 98.8009 15.1853C98.91 15.1853 99.0057 15.2541 99.0057 15.3632V15.4046C98.4451 17.689 96.2149 19.2623 93.465 19.2623C89.689 19.2623 86.5973 16.2388 86.5973 12.3123C86.5973 8.37235 89.6616 5.34886 94.1353 5.34886C95.9139 5.34886 97.4055 5.84121 98.4176 6.74423Z" fill="white"/>
<path d="M111.64 0.464792C111.722 0.464792 111.776 0.574461 111.776 0.683548C111.776 0.779217 111.735 0.875469 111.64 0.875469C110.436 0.875469 110.039 1.88758 110.039 4.69231V9.56267H117.769V4.69231C117.769 1.88758 117.372 0.875469 116.168 0.875469C116.086 0.875469 116.045 0.779217 116.045 0.67013C116.045 0.574461 116.086 0.464792 116.168 0.464792H121.764C121.845 0.464792 121.9 0.574461 121.9 0.683548C121.9 0.779217 121.859 0.875469 121.764 0.875469C120.56 0.875469 120.163 1.88758 120.163 4.69231V14.9662C120.163 17.7709 120.56 18.7971 121.764 18.7971C121.859 18.7971 121.9 18.8927 121.9 18.9884C121.9 19.0846 121.845 19.1937 121.764 19.1937H116.168C116.086 19.1937 116.045 19.0846 116.045 18.9884C116.045 18.8927 116.086 18.7971 116.168 18.7971C117.372 18.7971 117.769 17.7709 117.769 14.9662V10.0958H110.039V14.9662C110.039 17.7709 110.436 18.7971 111.64 18.7971C111.735 18.7971 111.776 18.8927 111.776 18.9884C111.776 19.0846 111.722 19.1937 111.64 19.1937H106.044C105.962 19.1937 105.921 19.0846 105.921 18.9884C105.921 18.8927 105.962 18.7971 106.044 18.7971C107.248 18.7971 107.645 17.7709 107.645 14.9662V4.69231C107.645 1.88758 107.248 0.875469 106.044 0.875469C105.962 0.875469 105.921 0.779217 105.921 0.67013C105.921 0.574461 105.962 0.464792 106.044 0.464792H111.64Z" fill="white"/>
<path d="M122.036 12.3123C122.036 8.37235 125.1 5.34886 128.972 5.34886C131.736 5.34886 133.87 6.90873 133.87 9.04261C133.87 10.438 132.967 11.4233 131.681 11.4233H124.608C124.731 15.0348 127.112 17.689 130.162 17.689C131.872 17.689 133.282 16.8542 134.048 15.3083C134.088 15.2267 134.171 15.1853 134.24 15.1853C134.349 15.1853 134.458 15.2535 134.458 15.3498L134.444 15.4046C133.897 17.689 131.654 19.2623 128.917 19.2623C125.128 19.2623 122.036 16.2388 122.036 12.3123ZM131.202 9.0152C131.202 7.1549 130.135 5.93746 128.452 5.93746C126.304 5.93746 124.676 7.90684 124.594 10.8895H130.025C130.778 10.8895 131.202 10.2192 131.202 9.0152Z" fill="white"/>
<path d="M136.098 15.8968C136.098 13.4888 138.848 11.1495 143.773 9.54884V9.3435C143.773 7.55146 142.706 6.40227 141.023 6.40227C139.957 6.40227 138.793 6.85378 137.754 7.70196L137.685 7.72938C137.576 7.72938 137.453 7.57888 137.453 7.48321C137.453 7.45579 137.466 7.42837 137.48 7.41437C138.903 5.99159 140.763 5.37616 142.419 5.37616C144.731 5.40358 146.167 6.90861 146.167 9.17958V14.761C146.167 17.5798 146.564 18.5919 147.768 18.5919C147.85 18.5919 147.891 18.6881 147.891 18.7832C147.891 18.8929 147.85 19.0026 147.768 19.0026H145.155C144.197 19.0026 143.773 18.5645 143.773 17.5249V16.9229C142.979 18.2775 141.434 19.2621 139.779 19.2621C137.726 19.2621 136.098 17.7571 136.098 15.8968ZM143.773 15.0078V10.1509C141.324 11.0673 138.684 12.8733 138.684 15.2266C138.684 16.7176 139.779 17.8942 141.187 17.8942C142.652 17.8942 143.773 16.6493 143.773 15.0078Z" fill="white"/>
<path d="M149.381 19.0025C149.299 19.0025 149.258 18.8928 149.258 18.7837C149.258 18.6881 149.299 18.5918 149.381 18.5918C150.585 18.5918 150.982 17.5797 150.982 14.761V4.5005C150.982 1.69635 150.585 1.20342 149.381 1.20342C149.299 1.20342 149.258 1.12176 149.258 1.02609C149.258 0.929834 149.299 0.820749 149.381 0.806747L152.924 0.0542316H153.047C153.253 0.0542316 153.376 0.232151 153.376 0.464907V14.761C153.376 17.5797 153.773 18.5918 154.977 18.5918C155.072 18.5918 155.113 18.6881 155.113 18.7837C155.113 18.8928 155.059 19.0025 154.977 19.0025H149.381Z" fill="white"/>
<path d="M157.233 15.3359V6.1564H155.7C155.577 6.1564 155.523 6.01931 155.523 5.88223C155.523 5.75914 155.577 5.62264 155.7 5.62264C157.397 5.62264 158.601 4.19985 159.107 1.61388C159.135 1.47737 159.258 1.40912 159.395 1.40912C159.518 1.40912 159.641 1.47737 159.641 1.61388V5.62264H162.678C162.801 5.62264 162.856 5.75914 162.856 5.88223C162.856 6.01931 162.801 6.1564 162.678 6.1564H159.641V15.3359C159.641 16.9366 160.243 17.9213 161.187 17.9213C161.721 17.9213 162.213 17.5795 162.569 16.9641C162.596 16.9092 162.65 16.8818 162.705 16.8818C162.815 16.8818 162.924 16.9781 162.924 17.0872L162.911 17.142C162.322 18.5239 161.365 19.2625 160.119 19.2625C158.355 19.2625 157.233 17.7574 157.233 15.3359Z" fill="white"/>
<path d="M172.281 19.0025C172.199 19.0025 172.145 18.8928 172.145 18.7837C172.145 18.6881 172.186 18.5918 172.281 18.5918C173.471 18.5918 173.869 17.5797 173.869 14.761V9.4397C173.869 7.60624 172.856 6.44363 171.283 6.44363C169.449 6.44363 168.013 8.05775 168.013 10.1374V14.761C168.013 17.5797 168.41 18.5918 169.614 18.5918C169.696 18.5918 169.737 18.6881 169.737 18.7837C169.737 18.8928 169.696 19.0025 169.614 19.0025H164.018C163.936 19.0025 163.881 18.8928 163.881 18.7837C163.881 18.6881 163.923 18.5918 164.018 18.5918C165.208 18.5918 165.619 17.5797 165.619 14.761V4.5005C165.619 1.69635 165.208 1.20342 164.018 1.20342C163.923 1.20342 163.881 1.12176 163.881 1.02609C163.881 0.929834 163.936 0.820749 164.018 0.806747L167.562 0.0542316H167.671C167.876 0.0542316 168.013 0.232151 168.013 0.464907V7.9755C168.82 6.41621 170.489 5.34869 172.405 5.34869C174.771 5.34869 176.276 6.96339 176.276 9.4397V14.761C176.276 17.5797 176.673 18.5918 177.863 18.5918C177.959 18.5918 178 18.6881 178 18.7837C178 18.8928 177.945 19.0025 177.863 19.0025H172.281Z" fill="white"/>
<path d="M12.6836 4.50013C12.196 4.50013 11.7415 4.74514 11.346 5.17915C10.9499 4.74514 10.4955 4.50013 10.0078 4.50013C9.52016 4.50013 9.06573 4.74514 8.66964 5.17915C8.27354 4.74514 7.81912 4.50013 7.33144 4.50013C5.75524 4.50013 4.52087 7.05169 4.52087 10.3091C4.52087 13.5665 5.75524 16.1187 7.33144 16.1187C7.81912 16.1187 8.27354 15.8736 8.66964 15.4396C9.06573 15.8736 9.52016 16.1187 10.0078 16.1187C10.4955 16.1187 10.9499 15.8731 11.346 15.4396C11.7415 15.8731 12.196 16.1187 12.6836 16.1187C14.2604 16.1187 15.4948 13.5665 15.4948 10.3091C15.4948 7.05169 14.2604 4.50013 12.6836 4.50013ZM10.0078 4.77022C10.4278 4.77022 10.8234 4.99656 11.1722 5.39149C10.6238 6.10259 10.2085 7.19345 10.0078 8.50248C9.80716 7.19345 9.39182 6.10259 8.84347 5.39149C9.19232 4.99656 9.58782 4.77022 10.0078 4.77022ZM7.33144 15.8491C5.93024 15.8491 4.79038 13.3635 4.79038 10.3091C4.79038 7.2547 5.93024 4.77022 7.33144 4.77022C7.75145 4.77022 8.14696 4.99656 8.49638 5.39149C7.76895 6.33476 7.2766 7.94888 7.20777 9.84884C7.00126 9.90484 6.84609 10.0851 6.84609 10.3091C6.84609 10.5331 7.00126 10.7139 7.20777 10.7699C7.2766 12.6693 7.76895 14.2834 8.49638 15.2273C8.14696 15.6222 7.75145 15.8491 7.33144 15.8491ZM7.47669 10.7653C7.67328 10.7029 7.81737 10.5261 7.81737 10.3091C7.81737 10.0927 7.67328 9.91534 7.47669 9.85292C7.54436 8.06088 8.00462 6.51151 8.66964 5.60908C9.33465 6.51151 9.79491 8.06088 9.86258 9.85292C9.66658 9.91534 9.52191 10.0927 9.52191 10.3091C9.52191 10.5255 9.66658 10.7029 9.86258 10.7653C9.79491 12.5579 9.33465 14.1073 8.66964 15.0097C8.00462 14.1073 7.54436 12.5579 7.47669 10.7653ZM10.0078 15.8491C9.58782 15.8491 9.19232 15.6222 8.84347 15.2273C9.39182 14.5156 9.80716 13.4253 10.0078 12.1157C10.2085 13.4253 10.6238 14.5156 11.1722 15.2273C10.8234 15.6222 10.4278 15.8491 10.0078 15.8491ZM10.1531 10.7653C10.3491 10.7029 10.4932 10.5255 10.4932 10.3091C10.4932 10.0927 10.3491 9.91534 10.1531 9.85292C10.2208 8.06088 10.681 6.51151 11.346 5.60908C12.0105 6.51151 12.4707 8.06088 12.5384 9.85292C12.3424 9.91593 12.1983 10.0927 12.1983 10.3091C12.1983 10.5255 12.3424 10.7029 12.5384 10.7653C12.4707 12.5579 12.0105 14.1073 11.346 15.0097C10.681 14.1073 10.2208 12.5579 10.1531 10.7653ZM12.6836 15.8491C12.2636 15.8491 11.8681 15.6222 11.5193 15.2273C12.2461 14.2834 12.7385 12.6693 12.8079 10.7699C13.0144 10.7145 13.1696 10.5337 13.1696 10.3091C13.1696 10.0845 13.0144 9.90426 12.8079 9.84826C12.7385 7.94888 12.2461 6.33476 11.5193 5.39149C11.8687 4.99656 12.2636 4.77022 12.6836 4.77022C14.0848 4.77022 15.2253 7.2547 15.2253 10.3091C15.2253 13.3635 14.0848 15.8491 12.6836 15.8491Z" fill="white"/>
<path d="M12.6839 16.2747C12.2137 16.2747 11.754 16.0641 11.3457 15.664C10.5296 16.4643 9.48595 16.4649 8.66985 15.664C8.2615 16.0641 7.80183 16.2747 7.33165 16.2747C5.66794 16.2747 4.36475 13.6543 4.36475 10.3088C4.36475 6.96392 5.66794 4.34353 7.33165 4.34353C7.80183 4.34353 8.2615 4.55412 8.66985 4.95429C9.48653 4.15336 10.5301 4.15452 11.3457 4.95429C11.754 4.55412 12.2137 4.34353 12.6839 4.34353C14.3476 4.34353 15.6513 6.96392 15.6513 10.3088C15.6513 13.6543 14.3476 16.2747 12.6839 16.2747ZM11.7219 15.2159C12.0305 15.5327 12.3537 15.6925 12.6839 15.6925C13.9771 15.6925 15.0692 13.2273 15.0692 10.3088C15.0692 7.39093 13.9771 4.92571 12.6839 4.92571C12.3537 4.92571 12.0305 5.08554 11.7219 5.4023C12.4324 6.39166 12.8799 7.95736 12.9598 9.73773C13.1826 9.84215 13.3261 10.0597 13.3261 10.3088C13.3261 10.5538 13.1803 10.7749 12.9598 10.8793C12.8799 12.6603 12.4324 14.2266 11.7219 15.2159ZM9.0461 15.2159C9.6627 15.8489 10.3528 15.8489 10.97 15.2159C10.5564 14.639 10.2245 13.8497 10.008 12.9345C9.79104 13.8497 9.4597 14.639 9.0461 15.2159ZM7.33165 4.92571C6.03895 4.92571 4.94693 7.39093 4.94693 10.3088C4.94693 13.2273 6.03895 15.6925 7.33165 15.6925C7.66241 15.6925 7.985 15.5327 8.29359 15.2159C7.58307 14.2266 7.13564 12.6615 7.05573 10.8793C6.83347 10.7755 6.69055 10.5585 6.69055 10.3088C6.69055 10.0597 6.83347 9.84274 7.05573 9.7389C7.13564 7.95736 7.58307 6.39166 8.29359 5.4023C7.985 5.08554 7.66241 4.92571 7.33165 4.92571ZM10.3137 10.8659C10.3866 12.417 10.7664 13.8352 11.3457 14.7347C11.9249 13.8352 12.3053 12.417 12.3782 10.8659C12.1734 10.7551 12.0428 10.5439 12.0428 10.3088C12.0428 10.0737 12.1734 9.86257 12.3782 9.75232C12.3053 8.2012 11.9249 6.78308 11.3457 5.88356C10.7664 6.78308 10.3866 8.2012 10.3137 9.75232C10.5185 9.86257 10.6497 10.0737 10.6497 10.3088C10.6497 10.5445 10.5185 10.7557 10.3137 10.8659ZM7.63732 10.8659C7.71082 12.4165 8.09058 13.8352 8.66985 14.7347C9.24911 13.8352 9.62887 12.4165 9.70237 10.8659C9.49761 10.7557 9.36636 10.5445 9.36636 10.3088C9.36636 10.0737 9.49761 9.86257 9.70237 9.75232C9.62945 8.2012 9.24911 6.78308 8.66985 5.88415C8.09058 6.78308 7.71082 8.2012 7.63732 9.75174C7.84266 9.86199 7.97391 10.0737 7.97391 10.3088C7.97391 10.5445 7.84266 10.7557 7.63732 10.8659ZM10.008 10.9943C10.0051 11.0468 10.0016 11.0993 9.99813 11.1512L10.008 11.0864L10.018 11.1512C10.0145 11.0993 10.011 11.0468 10.008 10.9943ZM10.008 9.96991L9.91004 10.0014C9.77179 10.0457 9.67845 10.1694 9.67845 10.3088C9.67845 10.4488 9.7712 10.5725 9.91004 10.6168L10.008 10.6478L10.106 10.6168C10.2443 10.5725 10.3376 10.4488 10.3376 10.3088C10.3376 10.1694 10.2443 10.0457 10.106 10.0014L10.008 9.96991ZM12.6734 9.97341L12.5859 10.0014C12.4476 10.0457 12.3548 10.1694 12.3548 10.3088C12.3548 10.4488 12.4476 10.5725 12.5859 10.6168L12.6734 10.6448L12.7673 10.6192C12.9149 10.5795 13.014 10.4547 13.014 10.3088C13.014 10.1636 12.9149 10.0387 12.7673 9.99907L12.6734 9.97341ZM7.34273 9.97341L7.24823 9.99907C7.10123 10.0393 7.00264 10.1636 7.00264 10.3088C7.00264 10.4547 7.10123 10.5789 7.24823 10.6192L7.34273 10.6443L7.42965 10.6168C7.56849 10.5725 7.66182 10.4488 7.66182 10.3088C7.66182 10.1688 7.56849 10.0457 7.42965 10.0014L7.34273 9.97341ZM9.99813 9.4659C10.0016 9.5184 10.0051 9.5709 10.008 9.6234C10.011 9.5709 10.0145 9.5184 10.018 9.4659L10.008 9.53123L9.99813 9.4659ZM9.0461 5.4023C9.4597 5.97923 9.79104 6.7685 10.008 7.68377C10.2245 6.7685 10.5564 5.97923 10.97 5.4023C10.3528 4.76937 9.6627 4.76937 9.0461 5.4023Z" fill="white"/>
<path d="M10.0077 0.457428C4.57556 0.457428 0.156128 4.87686 0.156128 10.309C0.156128 15.7417 4.57556 20.1611 10.0077 20.1611C15.4398 20.1611 19.8593 15.7417 19.8593 10.309C19.8593 4.87686 15.4398 0.457428 10.0077 0.457428ZM10.0077 19.8916C4.72432 19.8916 0.425634 15.5929 0.425634 10.309C0.425634 5.02562 4.72432 0.726936 10.0077 0.726936C15.2911 0.726936 19.5897 5.02562 19.5897 10.309C19.5897 15.5929 15.2911 19.8916 10.0077 19.8916Z" fill="white"/>
<path d="M10.0079 20.3176C4.48944 20.3176 0 15.8275 0 10.3091C0 4.79062 4.48944 0.301188 10.0079 0.301188C15.5264 0.301188 20.0158 4.79062 20.0158 10.3091C20.0158 15.8275 15.5264 20.3176 10.0079 20.3176ZM10.0079 0.883369C4.81028 0.883369 0.58218 5.11147 0.58218 10.3091C0.58218 15.5073 4.81028 19.736 10.0079 19.736C15.2055 19.736 19.4336 15.5073 19.4336 10.3091C19.4336 5.11147 15.2055 0.883369 10.0079 0.883369Z" fill="white"/>
</svg>
