<svg width="215" height="132" viewBox="0 0 215 132" fill="none" xmlns="http://www.w3.org/2000/svg">
<path d="M107.346 116.157C96.1095 125.43 81.7047 131 66 131C30.1009 131 1 101.898 1 66.0001C1 30.101 30.1009 1.00012 66 1.00012C81.538 1.00012 95.8027 6.45217 106.986 15.5478C107.769 16.1837 108.536 16.8393 109.289 17.5117" stroke="#0A2926" stroke-width="1.15733" stroke-miterlimit="10"/>
<path d="M109.683 114.667C108.98 115.183 108.261 115.688 107.529 116.179M107.243 116.366C106.508 115.878 105.785 115.378 105.077 114.864" stroke="#0A2926" stroke-width="1.15733" stroke-miterlimit="10"/>
<path d="M97.8606 107.197C89.457 96.7148 84.1941 83.4965 83.5427 69.0455" stroke="#0A2926" stroke-width="1.15733" stroke-miterlimit="10" stroke-dasharray="3.48 2.32"/>
<path d="M83.6238 61.5079C84.6338 46.3691 90.7092 32.6535 100.131 22.1235" stroke="#0A2926" stroke-width="1.15733" stroke-miterlimit="10" stroke-dasharray="3.62 2.47"/>
<path d="M100.637 110.435C100.225 109.987 99.8199 109.532 99.422 109.071M83.4988 67.8275C83.4834 67.2196 83.475 66.6116 83.475 65.9995C83.475 65.3635 83.4834 64.7289 83.5016 64.0971M101.005 21.1658C101.438 20.7021 101.876 20.2441 102.322 19.7916" stroke="#0A2926" stroke-width="1.15733" stroke-miterlimit="10"/>
<path d="M104.839 17.8231C105.587 17.1465 106.351 16.4853 107.128 15.8423C118.364 6.57021 132.769 1.0005 148.475 1.0005C184.373 1.0005 213.475 30.1014 213.475 66.0005C213.475 101.898 184.373 130.999 148.475 130.999C132.908 130.999 118.619 125.527 107.427 116.402" stroke="#0A2926" stroke-width="1.15733" stroke-miterlimit="10"/>
<path d="M115.53 107.056C123.934 96.5739 129.197 83.3557 129.848 68.9047" stroke="#0A2926" stroke-width="1.15733" stroke-miterlimit="10" stroke-dasharray="3.48 2.32"/>
<path d="M129.767 61.3673C128.757 46.2285 122.682 32.513 113.26 21.9829" stroke="#0A2926" stroke-width="1.15733" stroke-miterlimit="10" stroke-dasharray="3.62 2.47"/>
<path d="M112.754 110.294C113.166 109.846 113.571 109.391 113.969 108.93M129.892 67.6867C129.908 67.0787 129.916 66.4708 129.916 65.8586C129.916 65.2226 129.908 64.5881 129.889 63.9563M112.386 21.025C111.953 20.5613 111.515 20.1032 111.069 19.6508" stroke="#0A2926" stroke-width="1.15733" stroke-miterlimit="10"/>
</svg>
