<svg width="333" height="38" viewBox="0 0 333 38" fill="none" xmlns="http://www.w3.org/2000/svg">
<path d="M71.3188 9.28782C71.3188 15.4282 64.3841 20.0858 54.8659 20.0858V19.0875C61.7493 19.0875 66.3295 15.2242 66.3295 9.5693C66.3295 4.78401 63.0542 1.48362 58.3201 1.48362C54.8659 1.48362 54.0727 3.22383 54.0727 8.77612V27.506C54.0727 33.007 55.071 35.1563 57.5782 35.1563C57.7321 35.1563 57.8084 35.3364 57.8084 35.5142C57.8084 35.6942 57.7321 35.8982 57.5782 35.8982H46.6013C46.4475 35.8982 46.3711 35.6942 46.3711 35.4891C46.3711 35.3102 46.4224 35.1563 46.6013 35.1563C48.8532 35.1563 49.5951 33.2372 49.5951 27.9926V8.77612C49.5951 3.53041 48.8532 1.63745 46.6013 1.63745C46.4224 1.63745 46.3711 1.45744 46.3711 1.27851C46.3711 1.07448 46.4475 0.869366 46.6013 0.869366H53.0744C55.1223 0.869366 57.0665 0.382767 59.5487 0.382767C66.3295 0.382767 71.3188 4.0421 71.3188 9.28782Z" fill="#0A2926"/>
<path d="M71.0586 29.7319C71.0586 25.2281 76.2017 20.853 85.4134 17.8592V17.4752C85.4134 14.1235 83.4179 11.9742 80.2702 11.9742C78.2747 11.9742 76.0992 12.8186 74.155 14.405L74.0262 14.4563C73.8222 14.4563 73.592 14.1748 73.592 13.9959C73.592 13.9446 73.6171 13.8933 73.6433 13.8671C76.3043 11.2061 79.7836 10.055 82.88 10.055C87.2038 10.1063 89.891 12.9212 89.891 17.1686V27.6077C89.891 32.8795 90.6329 34.7725 92.8848 34.7725C93.0386 34.7725 93.115 34.9525 93.115 35.1304C93.115 35.3355 93.0386 35.5406 92.8848 35.5406H87.9981C86.2066 35.5406 85.4134 34.7212 85.4134 32.777V31.651C83.9285 34.1844 81.0372 36.0261 77.942 36.0261C74.1037 36.0261 71.0586 33.2112 71.0586 29.7319ZM85.4134 28.0692V18.9852C80.8332 20.6992 75.8941 24.0771 75.8941 28.4783C75.8941 31.267 77.942 33.4676 80.5768 33.4676C83.3153 33.4676 85.4134 31.1393 85.4134 28.0692Z" fill="#0A2926"/>
<path d="M115.991 12.6138L114.992 18.6265C114.967 18.8316 114.813 18.908 114.634 18.908C114.455 18.908 114.25 18.7804 114.25 18.5763C114.25 14.1751 111.257 11.1049 106.779 11.1049C101.764 11.1049 98.6681 14.9683 98.6681 20.7759C98.6681 27.8382 103.197 33.0839 109.082 33.0839C112.255 33.0839 114.916 31.5237 116.348 28.6314C116.426 28.4786 116.579 28.4011 116.707 28.4011C116.911 28.4011 117.09 28.5299 117.09 28.7339V28.8114C116.042 33.0839 111.871 36.0264 106.728 36.0264C99.6653 36.0264 93.8828 30.3716 93.8828 23.0278C93.8828 15.6589 99.614 10.0041 107.981 10.0041C111.308 10.0041 114.098 10.9249 115.991 12.6138Z" fill="#0A2926"/>
<path d="M119.466 35.5406C119.312 35.5406 119.211 35.3355 119.211 35.1314C119.211 34.9525 119.287 34.7725 119.466 34.7725C121.692 34.7725 122.435 32.8795 122.435 27.6076V18.4222C122.435 13.1765 121.692 12.2818 119.466 12.2818C119.287 12.2818 119.211 12.128 119.211 11.9491C119.211 11.7439 119.312 11.5388 119.466 11.5137L126.093 10.1063H126.298C126.682 10.1063 126.938 10.4391 126.938 10.8744V27.6076C126.938 32.8795 127.68 34.7725 129.906 34.7725C130.085 34.7725 130.162 34.9525 130.162 35.1314C130.162 35.3355 130.059 35.5406 129.906 35.5406H119.466ZM121.846 4.34888C121.846 2.71124 123.049 1.50891 124.686 1.50891C126.323 1.50891 127.527 2.71124 127.527 4.34888C127.527 6.01272 126.323 7.21504 124.686 7.21504C123.049 7.21504 121.846 6.01272 121.846 4.34888Z" fill="#0A2926"/>
<path d="M133.232 35.5406C133.078 35.5406 132.977 35.3355 132.977 35.1314C132.977 34.9525 133.053 34.7725 133.232 34.7725C135.484 34.7725 136.226 32.8795 136.226 27.6076V11.5137H133.334C133.104 11.5137 133.002 11.2573 133.002 11.002C133.002 10.7718 133.104 10.5165 133.334 10.5165H136.226V7.85438C136.226 3.65825 139.655 0 144.286 0C146.179 0 147.971 0.613163 149.173 1.61146L148.84 7.11248C148.815 7.31759 148.635 7.44524 148.431 7.44524C148.277 7.44524 148.098 7.34269 148.072 7.11248C147.689 3.55569 145.898 1.07358 143.748 1.07358C141.957 1.07358 140.703 2.81379 140.703 5.27081V10.5165H145.898C146.128 10.5165 146.23 10.7718 146.23 11.002C146.23 11.2573 146.128 11.5137 145.898 11.5137H140.703V27.1221C140.703 32.6231 141.702 34.7725 144.184 34.7725C144.363 34.7725 144.439 34.9525 144.439 35.1314C144.439 35.3355 144.336 35.5406 144.184 35.5406H133.232Z" fill="#0A2926"/>
<path d="M150.247 35.5406C150.094 35.5406 149.992 35.3355 149.992 35.1314C149.992 34.9525 150.069 34.7725 150.247 34.7725C152.473 34.7725 153.216 32.8795 153.216 27.6076V18.4222C153.216 13.1765 152.473 12.2818 150.247 12.2818C150.069 12.2818 149.992 12.128 149.992 11.9491C149.992 11.7439 150.094 11.5388 150.247 11.5137L156.874 10.1063H157.08C157.464 10.1063 157.719 10.4391 157.719 10.8744V27.6076C157.719 32.8795 158.461 34.7725 160.688 34.7725C160.867 34.7725 160.943 34.9525 160.943 35.1314C160.943 35.3355 160.84 35.5406 160.688 35.5406H150.247ZM152.627 4.34888C152.627 2.71124 153.83 1.50891 155.467 1.50891C157.105 1.50891 158.308 2.71124 158.308 4.34888C158.308 6.01272 157.105 7.21504 155.467 7.21504C153.83 7.21504 152.627 6.01272 152.627 4.34888Z" fill="#0A2926"/>
<path d="M184.073 12.6138L183.074 18.6265C183.049 18.8316 182.895 18.908 182.716 18.908C182.537 18.908 182.332 18.7804 182.332 18.5763C182.332 14.1751 179.339 11.1049 174.861 11.1049C169.847 11.1049 166.75 14.9683 166.75 20.7759C166.75 27.8382 171.279 33.0839 177.164 33.0839C180.337 33.0839 182.998 31.5237 184.43 28.6314C184.508 28.4786 184.661 28.4011 184.789 28.4011C184.993 28.4011 185.172 28.5299 185.172 28.7339V28.8114C184.124 33.0839 179.953 36.0264 174.81 36.0264C167.747 36.0264 161.965 30.3716 161.965 23.0278C161.965 15.6589 167.696 10.0041 176.063 10.0041C179.39 10.0041 182.18 10.9249 184.073 12.6138Z" fill="#0A2926"/>
<path d="M208.801 0.869366C208.955 0.869366 209.056 1.07448 209.056 1.27851C209.056 1.45744 208.98 1.63746 208.801 1.63746C206.549 1.63746 205.807 3.53041 205.807 8.77612V17.8852H220.264V8.77612C220.264 3.53041 219.521 1.63746 217.271 1.63746C217.117 1.63746 217.04 1.45744 217.04 1.25341C217.04 1.07448 217.117 0.869366 217.271 0.869366H227.736C227.889 0.869366 227.991 1.07448 227.991 1.27851C227.991 1.45744 227.915 1.63746 227.736 1.63746C225.484 1.63746 224.742 3.53041 224.742 8.77612V27.9915C224.742 33.2372 225.484 35.1563 227.736 35.1563C227.915 35.1563 227.991 35.3353 227.991 35.5142C227.991 35.6942 227.889 35.8982 227.736 35.8982H217.271C217.117 35.8982 217.04 35.6942 217.04 35.5142C217.04 35.3353 217.117 35.1563 217.271 35.1563C219.521 35.1563 220.264 33.2372 220.264 27.9915V18.8824H205.807V27.9915C205.807 33.2372 206.549 35.1563 208.801 35.1563C208.98 35.1563 209.056 35.3353 209.056 35.5142C209.056 35.6942 208.955 35.8982 208.801 35.8982H198.336C198.182 35.8982 198.105 35.6942 198.105 35.5142C198.105 35.3353 198.182 35.1563 198.336 35.1563C200.588 35.1563 201.329 33.2372 201.329 27.9915V8.77612C201.329 3.53041 200.588 1.63746 198.336 1.63746C198.182 1.63746 198.105 1.45744 198.105 1.25341C198.105 1.07448 198.182 0.869366 198.336 0.869366H208.801Z" fill="#0A2926"/>
<path d="M228.246 23.0278C228.246 15.6589 233.977 10.0041 241.219 10.0041C246.388 10.0041 250.379 12.9215 250.379 16.9125C250.379 19.5223 248.69 21.365 246.285 21.365H233.056C233.287 28.1197 237.739 33.0839 243.445 33.0839C246.643 33.0839 249.279 31.5226 250.712 28.6314C250.788 28.4786 250.942 28.4011 251.071 28.4011C251.275 28.4011 251.48 28.5288 251.48 28.7088L251.454 28.8114C250.43 33.0839 246.234 36.0264 241.116 36.0264C234.029 36.0264 228.246 30.3716 228.246 23.0278ZM245.39 16.8612C245.39 13.3819 243.394 11.1049 240.246 11.1049C236.229 11.1049 233.184 14.7883 233.031 20.3667H243.189C244.596 20.3667 245.39 19.1131 245.39 16.8612Z" fill="#0A2926"/>
<path d="M254.547 29.7319C254.547 25.2281 259.69 20.853 268.902 17.8592V17.4752C268.902 14.1235 266.906 11.9742 263.759 11.9742C261.763 11.9742 259.587 12.8186 257.643 14.405L257.514 14.4563C257.31 14.4563 257.08 14.1748 257.08 13.9959C257.08 13.9446 257.105 13.8933 257.132 13.8671C259.793 11.2061 263.272 10.055 266.368 10.055C270.692 10.1063 273.379 12.9212 273.379 17.1686V27.6077C273.379 32.8795 274.121 34.7725 276.373 34.7725C276.527 34.7725 276.603 34.9525 276.603 35.1304C276.603 35.3355 276.527 35.5406 276.373 35.5406H271.486C269.695 35.5406 268.902 34.7212 268.902 32.777V31.651C267.417 34.1844 264.526 36.0261 261.43 36.0261C257.592 36.0261 254.547 33.2112 254.547 29.7319ZM268.902 28.0692V18.9852C264.321 20.6992 259.382 24.0771 259.382 28.4783C259.382 31.267 261.43 33.4676 264.065 33.4676C266.804 33.4676 268.902 31.1393 268.902 28.0692Z" fill="#0A2926"/>
<path d="M279.39 35.5406C279.237 35.5406 279.16 35.3355 279.16 35.1314C279.16 34.9525 279.237 34.7725 279.39 34.7725C281.642 34.7725 282.384 32.8795 282.384 27.6076V8.41736C282.384 3.17274 281.642 2.25082 279.39 2.25082C279.237 2.25082 279.16 2.09807 279.16 1.91914C279.16 1.73912 279.237 1.5351 279.39 1.50891L286.017 0.101471H286.248C286.632 0.101471 286.862 0.434235 286.862 0.86956V27.6076C286.862 32.8795 287.604 34.7725 289.856 34.7725C290.035 34.7725 290.111 34.9525 290.111 35.1314C290.111 35.3355 290.009 35.5406 289.856 35.5406H279.39Z" fill="#0A2926"/>
<path d="M294.073 28.6829V11.5144H291.207C290.976 11.5144 290.875 11.258 290.875 11.0016C290.875 10.7714 290.976 10.5161 291.207 10.5161C294.381 10.5161 296.631 7.85502 297.578 3.01844C297.63 2.76314 297.86 2.63549 298.116 2.63549C298.346 2.63549 298.577 2.76314 298.577 3.01844V10.5161H304.257C304.487 10.5161 304.589 10.7714 304.589 11.0016C304.589 11.258 304.487 11.5144 304.257 11.5144H298.577V28.6829C298.577 31.6767 299.703 33.5184 301.468 33.5184C302.466 33.5184 303.387 32.8791 304.053 31.728C304.103 31.6255 304.205 31.5742 304.308 31.5742C304.513 31.5742 304.717 31.7542 304.717 31.9582L304.692 32.0608C303.591 34.6455 301.801 36.0267 299.471 36.0267C296.171 36.0267 294.073 33.2118 294.073 28.6829Z" fill="#0A2926"/>
<path d="M322.219 35.5406C322.065 35.5406 321.963 35.3355 321.963 35.1314C321.963 34.9525 322.04 34.7725 322.219 34.7725C324.444 34.7725 325.187 32.8795 325.187 27.6076V17.6552C325.187 14.226 323.293 12.0516 320.351 12.0516C316.922 12.0516 314.236 15.0705 314.236 18.9601V27.6076C314.236 32.8795 314.978 34.7725 317.229 34.7725C317.383 34.7725 317.46 34.9525 317.46 35.1314C317.46 35.3355 317.383 35.5406 317.229 35.5406H306.764C306.61 35.5406 306.508 35.3355 306.508 35.1314C306.508 34.9525 306.585 34.7725 306.764 34.7725C308.99 34.7725 309.758 32.8795 309.758 27.6076V8.41736C309.758 3.17274 308.99 2.25082 306.764 2.25082C306.585 2.25082 306.508 2.09807 306.508 1.91914C306.508 1.73912 306.61 1.5351 306.764 1.50891L313.391 0.101471H313.596C313.979 0.101471 314.236 0.434235 314.236 0.86956V14.9167C315.746 12.0003 318.867 10.0037 322.449 10.0037C326.875 10.0037 329.69 13.0237 329.69 17.6552V27.6076C329.69 32.8795 330.432 34.7725 332.659 34.7725C332.838 34.7725 332.914 34.9525 332.914 35.1314C332.914 35.3355 332.812 35.5406 332.659 35.5406H322.219Z" fill="#0A2926"/>
<path d="M23.7239 8.41656C22.8118 8.41656 21.9619 8.8748 21.2222 9.68653C20.4814 8.8748 19.6314 8.41656 18.7193 8.41656C17.8072 8.41656 16.9573 8.8748 16.2165 9.68653C15.4757 8.8748 14.6258 8.41656 13.7137 8.41656C10.7657 8.41656 8.45703 13.1888 8.45703 19.2811C8.45703 25.3735 10.7657 30.1468 13.7137 30.1468C14.6258 30.1468 15.4757 29.6885 16.2165 28.8768C16.9573 29.6885 17.8072 30.1468 18.7193 30.1468C19.6314 30.1468 20.4814 29.6874 21.2222 28.8768C21.9619 29.6874 22.8118 30.1468 23.7239 30.1468C26.673 30.1468 28.9816 25.3735 28.9816 19.2811C28.9816 13.1888 26.673 8.41656 23.7239 8.41656ZM18.7193 8.92171C19.5049 8.92171 20.2446 9.34504 20.897 10.0837C19.8715 11.4136 19.0947 13.4539 18.7193 15.9022C18.344 13.4539 17.5672 11.4136 16.5416 10.0837C17.1941 9.34504 17.9338 8.92171 18.7193 8.92171ZM13.7137 29.6427C11.093 29.6427 8.96109 24.9938 8.96109 19.2811C8.96109 13.5684 11.093 8.92171 13.7137 8.92171C14.4992 8.92171 15.2389 9.34504 15.8925 10.0837C14.5319 11.8479 13.6111 14.8668 13.4824 18.4203C13.0961 18.525 12.8059 18.8622 12.8059 19.2811C12.8059 19.7001 13.0961 20.0383 13.4824 20.143C13.6111 23.6955 14.5319 26.7144 15.8925 28.4797C15.2389 29.2183 14.4992 29.6427 13.7137 29.6427ZM13.9853 20.1343C14.353 20.0176 14.6225 19.687 14.6225 19.2811C14.6225 18.8763 14.353 18.5447 13.9853 18.4279C14.1119 15.0763 14.9727 12.1785 16.2165 10.4906C17.4603 12.1785 18.3211 15.0763 18.4477 18.4279C18.0811 18.5447 17.8105 18.8763 17.8105 19.2811C17.8105 19.6859 18.0811 20.0176 18.4477 20.1343C18.3211 23.4871 17.4603 26.3849 16.2165 28.0727C14.9727 26.3849 14.1119 23.4871 13.9853 20.1343ZM18.7193 29.6427C17.9338 29.6427 17.1941 29.2183 16.5416 28.4797C17.5672 27.1486 18.344 25.1094 18.7193 22.6601C19.0947 25.1094 19.8715 27.1486 20.897 28.4797C20.2446 29.2183 19.5049 29.6427 18.7193 29.6427ZM18.991 20.1343C19.3576 20.0176 19.6271 19.6859 19.6271 19.2811C19.6271 18.8763 19.3576 18.5447 18.991 18.4279C19.1176 15.0763 19.9784 12.1785 21.2222 10.4906C22.4649 12.1785 23.3257 15.0763 23.4523 18.4279C23.0857 18.5458 22.8162 18.8763 22.8162 19.2811C22.8162 19.6859 23.0857 20.0176 23.4523 20.1343C23.3257 23.4871 22.4649 26.3849 21.2222 28.0727C19.9784 26.3849 19.1176 23.4871 18.991 20.1343ZM23.7239 29.6427C22.9384 29.6427 22.1987 29.2183 21.5462 28.4797C22.9057 26.7144 23.8265 23.6955 23.9563 20.143C24.3425 20.0394 24.6328 19.7012 24.6328 19.2811C24.6328 18.8611 24.3425 18.5239 23.9563 18.4192C23.8265 14.8668 22.9057 11.8479 21.5462 10.0837C22.1997 9.34504 22.9384 8.92171 23.7239 8.92171C26.3446 8.92171 28.4776 13.5684 28.4776 19.2811C28.4776 24.9938 26.3446 29.6427 23.7239 29.6427Z" fill="#0A2926"/>
<path d="M23.7234 30.4388C22.844 30.4388 21.9842 30.0449 21.2205 29.2964C19.6942 30.7933 17.7423 30.7944 16.2159 29.2964C15.4522 30.0449 14.5925 30.4388 13.7131 30.4388C10.6014 30.4388 8.16406 25.5378 8.16406 19.2807C8.16406 13.0247 10.6014 8.12376 13.7131 8.12376C14.5925 8.12376 15.4522 8.51763 16.2159 9.26608C17.7434 7.76808 19.6952 7.77026 21.2205 9.26608C21.9842 8.51763 22.844 8.12376 23.7234 8.12376C26.835 8.12376 29.2735 13.0247 29.2735 19.2807C29.2735 25.5378 26.835 30.4388 23.7234 30.4388ZM21.9242 28.4585C22.5014 29.051 23.1058 29.3499 23.7234 29.3499C26.1422 29.3499 28.1846 24.7392 28.1846 19.2807C28.1846 13.8233 26.1422 9.21262 23.7234 9.21262C23.1058 9.21262 22.5014 9.51156 21.9242 10.104C23.2531 11.9544 24.0899 14.8827 24.2394 18.2126C24.6562 18.4079 24.9246 18.8148 24.9246 19.2807C24.9246 19.739 24.6518 20.1525 24.2394 20.3478C24.0899 23.6787 23.2531 26.6081 21.9242 28.4585ZM16.9196 28.4585C18.0729 29.6423 19.3636 29.6423 20.5179 28.4585C19.7443 27.3795 19.1235 25.9033 18.7188 24.1915C18.3129 25.9033 17.6932 27.3795 16.9196 28.4585ZM13.7131 9.21262C11.2953 9.21262 9.25292 13.8233 9.25292 19.2807C9.25292 24.7392 11.2953 29.3499 13.7131 29.3499C14.3317 29.3499 14.935 29.051 15.5122 28.4585C14.1833 26.6081 13.3465 23.6809 13.197 20.3478C12.7813 20.1535 12.514 19.7477 12.514 19.2807C12.514 18.8148 12.7813 18.409 13.197 18.2148C13.3465 14.8827 14.1833 11.9544 15.5122 10.104C14.935 9.51156 14.3317 9.21262 13.7131 9.21262ZM19.2905 20.3227C19.4268 23.2237 20.1371 25.876 21.2205 27.5584C22.3039 25.876 23.0153 23.2237 23.1517 20.3227C22.7687 20.1154 22.5243 19.7204 22.5243 19.2807C22.5243 18.841 22.7687 18.4461 23.1517 18.2399C23.0153 15.3388 22.3039 12.6865 21.2205 11.0041C20.1371 12.6865 19.4268 15.3388 19.2905 18.2399C19.6734 18.4461 19.9189 18.841 19.9189 19.2807C19.9189 19.7215 19.6734 20.1165 19.2905 20.3227ZM14.2848 20.3227C14.4223 23.2226 15.1325 25.876 16.2159 27.5584C17.2993 25.876 18.0096 23.2226 18.1471 20.3227C17.7641 20.1165 17.5186 19.7215 17.5186 19.2807C17.5186 18.841 17.7641 18.4461 18.1471 18.2399C18.0107 15.3388 17.2993 12.6865 16.2159 11.0052C15.1325 12.6865 14.4223 15.3388 14.2848 18.2388C14.6688 18.445 14.9143 18.841 14.9143 19.2807C14.9143 19.7215 14.6688 20.1165 14.2848 20.3227ZM18.7188 20.5627C18.7133 20.6609 18.7068 20.7591 18.7002 20.8562L18.7188 20.7351L18.7373 20.8562C18.7308 20.7591 18.7242 20.6609 18.7188 20.5627ZM18.7188 18.6468L18.5355 18.7057C18.2769 18.7887 18.1023 19.02 18.1023 19.2807C18.1023 19.5426 18.2758 19.7739 18.5355 19.8568L18.7188 19.9146L18.9021 19.8568C19.1606 19.7739 19.3352 19.5426 19.3352 19.2807C19.3352 19.02 19.1606 18.7887 18.9021 18.7057L18.7188 18.6468ZM23.7037 18.6534L23.5401 18.7057C23.2815 18.7887 23.108 19.02 23.108 19.2807C23.108 19.5426 23.2815 19.7739 23.5401 19.8568L23.7037 19.9092L23.8794 19.8611C24.1554 19.787 24.3409 19.5535 24.3409 19.2807C24.3409 19.009 24.1554 18.7756 23.8794 18.7014L23.7037 18.6534ZM13.7338 18.6534L13.5571 18.7014C13.2821 18.7767 13.0977 19.009 13.0977 19.2807C13.0977 19.5535 13.2821 19.7859 13.5571 19.8611L13.7338 19.9081L13.8964 19.8568C14.156 19.7739 14.3306 19.5426 14.3306 19.2807C14.3306 19.0189 14.156 18.7887 13.8964 18.7057L13.7338 18.6534ZM18.7002 17.7042C18.7068 17.8024 18.7133 17.9006 18.7188 17.9987C18.7242 17.9006 18.7308 17.8024 18.7373 17.7042L18.7188 17.8264L18.7002 17.7042ZM16.9196 10.104C17.6932 11.183 18.3129 12.6592 18.7188 14.371C19.1235 12.6592 19.7443 11.183 20.5179 10.104C19.3636 8.92022 18.0729 8.92022 16.9196 10.104Z" fill="#0A2926"/>
<path d="M18.7184 0.855507C8.55867 0.855507 0.292969 9.12121 0.292969 19.281C0.292969 29.4418 8.55867 37.7075 18.7184 37.7075C28.8782 37.7075 37.1439 29.4418 37.1439 19.281C37.1439 9.12121 28.8782 0.855507 18.7184 0.855507ZM18.7184 37.2034C8.83689 37.2034 0.797028 29.1636 0.797028 19.281C0.797028 9.39943 8.83689 1.35957 18.7184 1.35957C28.6 1.35957 36.6398 9.39943 36.6398 19.281C36.6398 29.1636 28.6 37.2034 18.7184 37.2034Z" fill="#0A2926"/>
<path d="M18.7178 38.0001C8.39663 38.0001 0 29.6024 0 19.2812C0 8.95994 8.39663 0.563313 18.7178 0.563313C29.0391 0.563313 37.4357 8.95994 37.4357 19.2812C37.4357 29.6024 29.0391 38.0001 18.7178 38.0001ZM18.7178 1.65217C8.9967 1.65217 1.08886 9.56001 1.08886 19.2812C1.08886 29.0034 8.9967 36.9123 18.7178 36.9123C28.439 36.9123 36.3468 29.0034 36.3468 19.2812C36.3468 9.56001 28.439 1.65217 18.7178 1.65217Z" fill="#0A2926"/>
</svg>
