<svg width="333" height="38" viewBox="0 0 333 38" fill="none" xmlns="http://www.w3.org/2000/svg">
<path d="M71.3188 9.28778C71.3188 15.4281 64.3841 20.0858 54.8659 20.0858V19.0875C61.7493 19.0875 66.3295 15.2241 66.3295 9.56926C66.3295 4.78397 63.0542 1.48358 58.3201 1.48358C54.8659 1.48358 54.0727 3.22379 54.0727 8.77608V27.5059C54.0727 33.0069 55.071 35.1563 57.5782 35.1563C57.7321 35.1563 57.8084 35.3363 57.8084 35.5141C57.8084 35.6942 57.7321 35.8982 57.5782 35.8982H46.6013C46.4475 35.8982 46.3711 35.6942 46.3711 35.4891C46.3711 35.3101 46.4224 35.1563 46.6013 35.1563C48.8532 35.1563 49.5951 33.2372 49.5951 27.9925V8.77608C49.5951 3.53036 48.8532 1.63741 46.6013 1.63741C46.4224 1.63741 46.3711 1.45739 46.3711 1.27847C46.3711 1.07444 46.4475 0.869324 46.6013 0.869324H53.0744C55.1223 0.869324 57.0665 0.382725 59.5487 0.382725C66.3295 0.382725 71.3188 4.04206 71.3188 9.28778Z" fill="#0A2926"/>
<path d="M71.0605 29.7319C71.0605 25.2281 76.2037 20.8531 85.4153 17.8592V17.4752C85.4153 14.1235 83.4198 11.9742 80.2722 11.9742C78.2767 11.9742 76.1011 12.8186 74.1569 14.405L74.0282 14.4563C73.8241 14.4563 73.5939 14.1748 73.5939 13.9959C73.5939 13.9446 73.619 13.8933 73.6452 13.8671C76.3063 11.2061 79.7856 10.0551 82.8819 10.0551C87.2057 10.1063 89.893 12.9212 89.893 17.1686V27.6077C89.893 32.8796 90.6349 34.7725 92.8868 34.7725C93.0406 34.7725 93.117 34.9525 93.117 35.1304C93.117 35.3355 93.0406 35.5406 92.8868 35.5406H88C86.2085 35.5406 85.4153 34.7212 85.4153 32.777V31.6511C83.9304 34.1845 81.0392 36.0261 77.9439 36.0261C74.1056 36.0261 71.0605 33.2112 71.0605 29.7319ZM85.4153 28.0692V18.9852C80.8352 20.6992 75.896 24.0771 75.896 28.4783C75.896 31.267 77.9439 33.4676 80.5788 33.4676C83.3173 33.4676 85.4153 31.1394 85.4153 28.0692Z" fill="#0A2926"/>
<path d="M115.991 12.6138L114.992 18.6265C114.967 18.8316 114.813 18.908 114.634 18.908C114.455 18.908 114.25 18.7803 114.25 18.5763C114.25 14.1751 111.257 11.1049 106.779 11.1049C101.764 11.1049 98.6681 14.9682 98.6681 20.7758C98.6681 27.8381 103.197 33.0838 109.082 33.0838C112.255 33.0838 114.916 31.5237 116.348 28.6313C116.426 28.4786 116.579 28.4011 116.707 28.4011C116.911 28.4011 117.09 28.5298 117.09 28.7339V28.8113C116.042 33.0838 111.871 36.0264 106.728 36.0264C99.6653 36.0264 93.8828 30.3715 93.8828 23.0277C93.8828 15.6589 99.614 10.004 107.981 10.004C111.308 10.004 114.098 10.9249 115.991 12.6138Z" fill="#0A2926"/>
<path d="M119.466 35.5405C119.312 35.5405 119.211 35.3354 119.211 35.1314C119.211 34.9525 119.287 34.7724 119.466 34.7724C121.692 34.7724 122.435 32.8795 122.435 27.6076V18.4221C122.435 13.1764 121.692 12.2818 119.466 12.2818C119.287 12.2818 119.211 12.1279 119.211 11.949C119.211 11.7439 119.312 11.5388 119.466 11.5137L126.093 10.1062H126.298C126.682 10.1062 126.938 10.439 126.938 10.8743V27.6076C126.938 32.8795 127.68 34.7724 129.906 34.7724C130.085 34.7724 130.162 34.9525 130.162 35.1314C130.162 35.3354 130.059 35.5405 129.906 35.5405H119.466ZM121.846 4.34884C121.846 2.71119 123.049 1.50887 124.686 1.50887C126.323 1.50887 127.527 2.71119 127.527 4.34884C127.527 6.01267 126.323 7.215 124.686 7.215C123.049 7.215 121.846 6.01267 121.846 4.34884Z" fill="#0A2926"/>
<path d="M133.232 35.5405C133.078 35.5405 132.977 35.3354 132.977 35.1314C132.977 34.9525 133.053 34.7724 133.232 34.7724C135.484 34.7724 136.226 32.8795 136.226 27.6076V11.5137H133.334C133.104 11.5137 133.002 11.2573 133.002 11.002C133.002 10.7718 133.104 10.5165 133.334 10.5165H136.226V7.85434C136.226 3.65821 139.655 -4.19617e-05 144.286 -4.19617e-05C146.179 -4.19617e-05 147.971 0.613121 149.173 1.61142L148.84 7.11244C148.815 7.31755 148.635 7.4452 148.431 7.4452C148.277 7.4452 148.098 7.34264 148.072 7.11244C147.689 3.55565 145.898 1.07354 143.748 1.07354C141.957 1.07354 140.703 2.81374 140.703 5.27076V10.5165H145.898C146.128 10.5165 146.23 10.7718 146.23 11.002C146.23 11.2573 146.128 11.5137 145.898 11.5137H140.703V27.1221C140.703 32.6231 141.702 34.7724 144.184 34.7724C144.363 34.7724 144.439 34.9525 144.439 35.1314C144.439 35.3354 144.336 35.5405 144.184 35.5405H133.232Z" fill="#0A2926"/>
<path d="M150.246 35.5405C150.092 35.5405 149.99 35.3354 149.99 35.1314C149.99 34.9525 150.067 34.7724 150.246 34.7724C152.471 34.7724 153.214 32.8795 153.214 27.6076V18.4221C153.214 13.1764 152.471 12.2818 150.246 12.2818C150.067 12.2818 149.99 12.1279 149.99 11.949C149.99 11.7439 150.092 11.5388 150.246 11.5137L156.873 10.1062H157.078C157.462 10.1062 157.717 10.439 157.717 10.8743V27.6076C157.717 32.8795 158.459 34.7724 160.686 34.7724C160.865 34.7724 160.941 34.9525 160.941 35.1314C160.941 35.3354 160.838 35.5405 160.686 35.5405H150.246ZM152.625 4.34884C152.625 2.71119 153.829 1.50887 155.465 1.50887C157.103 1.50887 158.306 2.71119 158.306 4.34884C158.306 6.01267 157.103 7.215 155.465 7.215C153.829 7.215 152.625 6.01267 152.625 4.34884Z" fill="#0A2926"/>
<path d="M184.071 12.6138L183.072 18.6265C183.047 18.8316 182.893 18.908 182.714 18.908C182.536 18.908 182.33 18.7803 182.33 18.5763C182.33 14.1751 179.337 11.1049 174.859 11.1049C169.845 11.1049 166.748 14.9682 166.748 20.7758C166.748 27.8381 171.277 33.0838 177.162 33.0838C180.335 33.0838 182.996 31.5237 184.428 28.6313C184.506 28.4786 184.659 28.4011 184.787 28.4011C184.991 28.4011 185.17 28.5298 185.17 28.7339V28.8113C184.122 33.0838 179.951 36.0264 174.808 36.0264C167.745 36.0264 161.963 30.3715 161.963 23.0277C161.963 15.6589 167.694 10.004 176.061 10.004C179.388 10.004 182.178 10.9249 184.071 12.6138Z" fill="#0A2926"/>
<path d="M208.801 0.869324C208.955 0.869324 209.056 1.07444 209.056 1.27847C209.056 1.45739 208.98 1.63742 208.801 1.63742C206.549 1.63742 205.807 3.53036 205.807 8.77608V17.8852H220.264V8.77608C220.264 3.53036 219.521 1.63742 217.271 1.63742C217.117 1.63742 217.04 1.45739 217.04 1.25337C217.04 1.07444 217.117 0.869324 217.271 0.869324H227.736C227.889 0.869324 227.991 1.07444 227.991 1.27847C227.991 1.45739 227.915 1.63742 227.736 1.63742C225.484 1.63742 224.742 3.53036 224.742 8.77608V27.9914C224.742 33.2372 225.484 35.1563 227.736 35.1563C227.915 35.1563 227.991 35.3352 227.991 35.5141C227.991 35.6942 227.889 35.8982 227.736 35.8982H217.271C217.117 35.8982 217.04 35.6942 217.04 35.5141C217.04 35.3352 217.117 35.1563 217.271 35.1563C219.521 35.1563 220.264 33.2372 220.264 27.9914V18.8824H205.807V27.9914C205.807 33.2372 206.549 35.1563 208.801 35.1563C208.98 35.1563 209.056 35.3352 209.056 35.5141C209.056 35.6942 208.955 35.8982 208.801 35.8982H198.336C198.182 35.8982 198.105 35.6942 198.105 35.5141C198.105 35.3352 198.182 35.1563 198.336 35.1563C200.588 35.1563 201.329 33.2372 201.329 27.9914V8.77608C201.329 3.53036 200.588 1.63742 198.336 1.63742C198.182 1.63742 198.105 1.45739 198.105 1.25337C198.105 1.07444 198.182 0.869324 198.336 0.869324H208.801Z" fill="#0A2926"/>
<path d="M228.244 23.0277C228.244 15.6589 233.975 10.004 241.217 10.004C246.386 10.004 250.377 12.9215 250.377 16.9125C250.377 19.5222 248.688 21.365 246.283 21.365H233.055C233.285 28.1196 237.737 33.0838 243.443 33.0838C246.641 33.0838 249.277 31.5226 250.71 28.6313C250.786 28.4786 250.94 28.4011 251.069 28.4011C251.273 28.4011 251.478 28.5288 251.478 28.7088L251.452 28.8113C250.428 33.0838 246.232 36.0264 241.114 36.0264C234.027 36.0264 228.244 30.3715 228.244 23.0277ZM245.388 16.8612C245.388 13.3819 243.392 11.1049 240.244 11.1049C236.227 11.1049 233.182 14.7882 233.029 20.3667H243.187C244.594 20.3667 245.388 19.1131 245.388 16.8612Z" fill="#0A2926"/>
<path d="M254.545 29.7319C254.545 25.2281 259.688 20.8531 268.9 17.8592V17.4752C268.9 14.1235 266.904 11.9742 263.757 11.9742C261.761 11.9742 259.586 12.8186 257.641 14.405L257.513 14.4563C257.309 14.4563 257.078 14.1748 257.078 13.9959C257.078 13.9446 257.103 13.8933 257.13 13.8671C259.791 11.2061 263.27 10.0551 266.366 10.0551C270.69 10.1063 273.377 12.9212 273.377 17.1686V27.6077C273.377 32.8796 274.119 34.7725 276.371 34.7725C276.525 34.7725 276.601 34.9525 276.601 35.1304C276.601 35.3355 276.525 35.5406 276.371 35.5406H271.484C269.693 35.5406 268.9 34.7212 268.9 32.777V31.6511C267.415 34.1845 264.524 36.0261 261.428 36.0261C257.59 36.0261 254.545 33.2112 254.545 29.7319ZM268.9 28.0692V18.9852C264.32 20.6992 259.38 24.0771 259.38 28.4783C259.38 31.267 261.428 33.4676 264.063 33.4676C266.802 33.4676 268.9 31.1394 268.9 28.0692Z" fill="#0A2926"/>
<path d="M279.388 35.5405C279.235 35.5405 279.158 35.3354 279.158 35.1314C279.158 34.9525 279.235 34.7724 279.388 34.7724C281.64 34.7724 282.382 32.8795 282.382 27.6076V8.41732C282.382 3.1727 281.64 2.25077 279.388 2.25077C279.235 2.25077 279.158 2.09803 279.158 1.9191C279.158 1.73907 279.235 1.53505 279.388 1.50887L286.015 0.101429H286.246C286.63 0.101429 286.86 0.434193 286.86 0.869518V27.6076C286.86 32.8795 287.602 34.7724 289.854 34.7724C290.033 34.7724 290.109 34.9525 290.109 35.1314C290.109 35.3354 290.007 35.5405 289.854 35.5405H279.388Z" fill="#0A2926"/>
<path d="M294.075 28.683V11.5144H291.209C290.978 11.5144 290.877 11.258 290.877 11.0016C290.877 10.7714 290.978 10.5161 291.209 10.5161C294.382 10.5161 296.633 7.85504 297.58 3.01846C297.632 2.76316 297.862 2.63551 298.118 2.63551C298.348 2.63551 298.579 2.76316 298.579 3.01846V10.5161H304.259C304.489 10.5161 304.591 10.7714 304.591 11.0016C304.591 11.258 304.489 11.5144 304.259 11.5144H298.579V28.683C298.579 31.6768 299.705 33.5184 301.47 33.5184C302.468 33.5184 303.389 32.8791 304.055 31.728C304.105 31.6255 304.207 31.5742 304.31 31.5742C304.515 31.5742 304.719 31.7542 304.719 31.9583L304.694 32.0608C303.593 34.6455 301.803 36.0267 299.473 36.0267C296.173 36.0267 294.075 33.2119 294.075 28.683Z" fill="#0A2926"/>
<path d="M322.219 35.5405C322.065 35.5405 321.963 35.3354 321.963 35.1314C321.963 34.9525 322.04 34.7724 322.219 34.7724C324.444 34.7724 325.187 32.8795 325.187 27.6076V17.6551C325.187 14.226 323.293 12.0516 320.351 12.0516C316.922 12.0516 314.236 15.0705 314.236 18.96V27.6076C314.236 32.8795 314.978 34.7724 317.229 34.7724C317.383 34.7724 317.46 34.9525 317.46 35.1314C317.46 35.3354 317.383 35.5405 317.229 35.5405H306.764C306.61 35.5405 306.508 35.3354 306.508 35.1314C306.508 34.9525 306.585 34.7724 306.764 34.7724C308.99 34.7724 309.758 32.8795 309.758 27.6076V8.41732C309.758 3.1727 308.99 2.25077 306.764 2.25077C306.585 2.25077 306.508 2.09803 306.508 1.9191C306.508 1.73907 306.61 1.53505 306.764 1.50887L313.391 0.101429H313.596C313.979 0.101429 314.236 0.434193 314.236 0.869518V14.9166C315.746 12.0003 318.867 10.0037 322.449 10.0037C326.875 10.0037 329.69 13.0237 329.69 17.6551V27.6076C329.69 32.8795 330.432 34.7724 332.659 34.7724C332.838 34.7724 332.914 34.9525 332.914 35.1314C332.914 35.3354 332.812 35.5405 332.659 35.5405H322.219Z" fill="#0A2926"/>
<path d="M23.722 8.41664C22.8099 8.41664 21.9599 8.87488 21.2202 9.68661C20.4794 8.87488 19.6295 8.41664 18.7174 8.41664C17.8053 8.41664 16.9554 8.87488 16.2145 9.68661C15.4737 8.87488 14.6238 8.41664 13.7117 8.41664C10.7637 8.41664 8.45508 13.1888 8.45508 19.2812C8.45508 25.3736 10.7637 30.1469 13.7117 30.1469C14.6238 30.1469 15.4737 29.6886 16.2145 28.8769C16.9554 29.6886 17.8053 30.1469 18.7174 30.1469C19.6295 30.1469 20.4794 29.6875 21.2202 28.8769C21.9599 29.6875 22.8099 30.1469 23.722 30.1469C26.6711 30.1469 28.9797 25.3736 28.9797 19.2812C28.9797 13.1888 26.6711 8.41664 23.722 8.41664ZM18.7174 8.92179C19.5029 8.92179 20.2427 9.34512 20.8951 10.0837C19.8695 11.4137 19.0927 13.454 18.7174 15.9023C18.3421 13.454 17.5652 11.4137 16.5397 10.0837C17.1921 9.34512 17.9318 8.92179 18.7174 8.92179ZM13.7117 29.6428C11.091 29.6428 8.95914 24.9939 8.95914 19.2812C8.95914 13.5685 11.091 8.92179 13.7117 8.92179C14.4972 8.92179 15.237 9.34512 15.8905 10.0837C14.53 11.848 13.6091 14.8669 13.4804 18.4204C13.0942 18.5251 12.804 18.8622 12.804 19.2812C12.804 19.7002 13.0942 20.0384 13.4804 20.1431C13.6091 23.6955 14.53 26.7144 15.8905 28.4797C15.237 29.2184 14.4972 29.6428 13.7117 29.6428ZM13.9834 20.1344C14.351 20.0177 14.6205 19.6871 14.6205 19.2812C14.6205 18.8764 14.351 18.5448 13.9834 18.428C14.1099 15.0763 14.9708 12.1785 16.2145 10.4907C17.4583 12.1785 18.3192 15.0763 18.4457 18.428C18.0791 18.5448 17.8085 18.8764 17.8085 19.2812C17.8085 19.686 18.0791 20.0177 18.4457 20.1344C18.3192 23.4872 17.4583 26.385 16.2145 28.0728C14.9708 26.385 14.1099 23.4872 13.9834 20.1344ZM18.7174 29.6428C17.9318 29.6428 17.1921 29.2184 16.5397 28.4797C17.5652 27.1487 18.3421 25.1095 18.7174 22.6601C19.0927 25.1095 19.8695 27.1487 20.8951 28.4797C20.2427 29.2184 19.5029 29.6428 18.7174 29.6428ZM18.9891 20.1344C19.3556 20.0177 19.6251 19.686 19.6251 19.2812C19.6251 18.8764 19.3556 18.5448 18.9891 18.428C19.1156 15.0763 19.9764 12.1785 21.2202 10.4907C22.4629 12.1785 23.3237 15.0763 23.4503 18.428C23.0837 18.5458 22.8142 18.8764 22.8142 19.2812C22.8142 19.686 23.0837 20.0177 23.4503 20.1344C23.3237 23.4872 22.4629 26.385 21.2202 28.0728C19.9764 26.385 19.1156 23.4872 18.9891 20.1344ZM23.722 29.6428C22.9364 29.6428 22.1967 29.2184 21.5443 28.4797C22.9037 26.7144 23.8245 23.6955 23.9544 20.1431C24.3406 20.0395 24.6308 19.7013 24.6308 19.2812C24.6308 18.8612 24.3406 18.524 23.9544 18.4193C23.8245 14.8669 22.9037 11.848 21.5443 10.0837C22.1978 9.34512 22.9364 8.92179 23.722 8.92179C26.3426 8.92179 28.4756 13.5685 28.4756 19.2812C28.4756 24.9939 26.3426 29.6428 23.722 29.6428Z" fill="#0A2926"/>
<path d="M23.7234 30.4387C22.844 30.4387 21.9842 30.0449 21.2205 29.2964C19.6942 30.7933 17.7423 30.7944 16.2159 29.2964C15.4522 30.0449 14.5925 30.4387 13.7131 30.4387C10.6014 30.4387 8.16406 25.5378 8.16406 19.2807C8.16406 13.0247 10.6014 8.12372 13.7131 8.12372C14.5925 8.12372 15.4522 8.51758 16.2159 9.26604C17.7434 7.76804 19.6952 7.77022 21.2205 9.26604C21.9842 8.51758 22.844 8.12372 23.7234 8.12372C26.835 8.12372 29.2735 13.0247 29.2735 19.2807C29.2735 25.5378 26.835 30.4387 23.7234 30.4387ZM21.9242 28.4585C22.5014 29.0509 23.1058 29.3499 23.7234 29.3499C26.1422 29.3499 28.1846 24.7391 28.1846 19.2807C28.1846 13.8233 26.1422 9.21257 23.7234 9.21257C23.1058 9.21257 22.5014 9.51152 21.9242 10.104C23.2531 11.9544 24.0899 14.8827 24.2394 18.2125C24.6562 18.4078 24.9246 18.8148 24.9246 19.2807C24.9246 19.7389 24.6518 20.1524 24.2394 20.3477C24.0899 23.6786 23.2531 26.6081 21.9242 28.4585ZM16.9196 28.4585C18.0729 29.6423 19.3636 29.6423 20.5179 28.4585C19.7443 27.3794 19.1235 25.9033 18.7188 24.1914C18.3129 25.9033 17.6932 27.3794 16.9196 28.4585ZM13.7131 9.21257C11.2953 9.21257 9.25292 13.8233 9.25292 19.2807C9.25292 24.7391 11.2953 29.3499 13.7131 29.3499C14.3317 29.3499 14.935 29.0509 15.5122 28.4585C14.1833 26.6081 13.3465 23.6808 13.197 20.3477C12.7813 20.1535 12.514 19.7476 12.514 19.2807C12.514 18.8148 12.7813 18.4089 13.197 18.2147C13.3465 14.8827 14.1833 11.9544 15.5122 10.104C14.935 9.51152 14.3317 9.21257 13.7131 9.21257ZM19.2905 20.3226C19.4268 23.2237 20.1371 25.876 21.2205 27.5584C22.3039 25.876 23.0153 23.2237 23.1517 20.3226C22.7687 20.1153 22.5243 19.7204 22.5243 19.2807C22.5243 18.841 22.7687 18.446 23.1517 18.2398C23.0153 15.3388 22.3039 12.6864 21.2205 11.0041C20.1371 12.6864 19.4268 15.3388 19.2905 18.2398C19.6734 18.446 19.9189 18.841 19.9189 19.2807C19.9189 19.7215 19.6734 20.1164 19.2905 20.3226ZM14.2848 20.3226C14.4223 23.2226 15.1325 25.876 16.2159 27.5584C17.2993 25.876 18.0096 23.2226 18.1471 20.3226C17.7641 20.1164 17.5186 19.7215 17.5186 19.2807C17.5186 18.841 17.7641 18.446 18.1471 18.2398C18.0107 15.3388 17.2993 12.6864 16.2159 11.0051C15.1325 12.6864 14.4223 15.3388 14.2848 18.2387C14.6688 18.4449 14.9143 18.841 14.9143 19.2807C14.9143 19.7215 14.6688 20.1164 14.2848 20.3226ZM18.7188 20.5626C18.7133 20.6608 18.7068 20.759 18.7002 20.8561L18.7188 20.735L18.7373 20.8561C18.7308 20.759 18.7242 20.6608 18.7188 20.5626ZM18.7188 18.6468L18.5355 18.7057C18.2769 18.7886 18.1023 19.0199 18.1023 19.2807C18.1023 19.5425 18.2758 19.7738 18.5355 19.8567L18.7188 19.9146L18.9021 19.8567C19.1606 19.7738 19.3352 19.5425 19.3352 19.2807C19.3352 19.0199 19.1606 18.7886 18.9021 18.7057L18.7188 18.6468ZM23.7037 18.6533L23.5401 18.7057C23.2815 18.7886 23.108 19.0199 23.108 19.2807C23.108 19.5425 23.2815 19.7738 23.5401 19.8567L23.7037 19.9091L23.8794 19.8611C24.1554 19.7869 24.3409 19.5534 24.3409 19.2807C24.3409 19.009 24.1554 18.7755 23.8794 18.7013L23.7037 18.6533ZM13.7338 18.6533L13.5571 18.7013C13.2821 18.7766 13.0977 19.009 13.0977 19.2807C13.0977 19.5534 13.2821 19.7858 13.5571 19.8611L13.7338 19.908L13.8964 19.8567C14.156 19.7738 14.3306 19.5425 14.3306 19.2807C14.3306 19.0188 14.156 18.7886 13.8964 18.7057L13.7338 18.6533ZM18.7002 17.7041C18.7068 17.8023 18.7133 17.9005 18.7188 17.9987C18.7242 17.9005 18.7308 17.8023 18.7373 17.7041L18.7188 17.8263L18.7002 17.7041ZM16.9196 10.104C17.6932 11.183 18.3129 12.6592 18.7188 14.371C19.1235 12.6592 19.7443 11.183 20.5179 10.104C19.3636 8.92018 18.0729 8.92018 16.9196 10.104Z" fill="#0A2926"/>
<path d="M18.7165 0.855526C8.55672 0.855526 0.291016 9.12123 0.291016 19.281C0.291016 29.4418 8.55672 37.7075 18.7165 37.7075C28.8762 37.7075 37.1419 29.4418 37.1419 19.281C37.1419 9.12123 28.8762 0.855526 18.7165 0.855526ZM18.7165 37.2035C8.83494 37.2035 0.795075 29.1636 0.795075 19.281C0.795075 9.39944 8.83494 1.35958 18.7165 1.35958C28.598 1.35958 36.6379 9.39944 36.6379 19.281C36.6379 29.1636 28.598 37.2035 18.7165 37.2035Z" fill="#0A2926"/>
<path d="M18.7178 38.0001C8.39663 38.0001 0 29.6024 0 19.2812C0 8.95996 8.39663 0.563332 18.7178 0.563332C29.0391 0.563332 37.4357 8.95996 37.4357 19.2812C37.4357 29.6024 29.0391 38.0001 18.7178 38.0001ZM18.7178 1.65219C8.9967 1.65219 1.08886 9.56003 1.08886 19.2812C1.08886 29.0034 8.9967 36.9124 18.7178 36.9124C28.439 36.9124 36.3468 29.0034 36.3468 19.2812C36.3468 9.56003 28.439 1.65219 18.7178 1.65219Z" fill="#0A2926"/>
</svg>
