<svg width="20" height="16" viewBox="0 0 20 16" fill="none" xmlns="http://www.w3.org/2000/svg">
<path fill-rule="evenodd" clip-rule="evenodd" d="M18.4824 13.5733H19.5V15.6094L3.91409 15.6104V13.5743H18.4825L18.4824 13.5733ZM1.0317 6.98176H2.05129V9.01793L0 9.01893V6.98277H1.0317V6.98176ZM1.0317 0.390259H2.05129V2.42642L0 2.42743V0.391267H1.0317V0.390259ZM1.0317 13.5733H2.05129V15.6094L0 15.6104V13.5743H1.0317V13.5733ZM18.4824 6.98176H19.5V9.01793L3.91409 9.01893V6.98277H18.4825L18.4824 6.98176ZM18.4824 0.390259H19.5V2.42642L3.91409 2.42743V0.391267H18.4825L18.4824 0.390259Z" fill="#0A2926"/>
<path fill-rule="evenodd" clip-rule="evenodd" d="M18.4824 13.5733H19.5V15.6094L3.91409 15.6104V13.5743H18.4825L18.4824 13.5733ZM1.0317 6.98176H2.05129V9.01793L0 9.01893V6.98277H1.0317V6.98176ZM1.0317 0.390259H2.05129V2.42642L0 2.42743V0.391267H1.0317V0.390259ZM1.0317 13.5733H2.05129V15.6094L0 15.6104V13.5743H1.0317V13.5733ZM18.4824 6.98176H19.5V9.01793L3.91409 9.01893V6.98277H18.4825L18.4824 6.98176ZM18.4824 0.390259H19.5V2.42642L3.91409 2.42743V0.391267H18.4825L18.4824 0.390259Z" fill="black" fill-opacity="0.2"/>
</svg>
