<svg width="36" height="36" viewBox="0 0 36 36" fill="none" xmlns="http://www.w3.org/2000/svg">
<g id="Group 115">
<circle id="Ellipse 23" cx="18" cy="18" r="18" fill="white"/>
<g id="Vector">
<path fill-rule="evenodd" clip-rule="evenodd" d="M18 7C24.0715 7 29 11.9285 29 18C29 24.0715 24.0715 29 18 29C11.9285 29 7 24.0715 7 18C7 11.9285 11.9285 7 18 7ZM18 8.57143C12.7967 8.57143 8.57143 12.7967 8.57143 18C8.57143 23.2033 12.7967 27.4286 18 27.4286C23.2033 27.4286 27.4286 23.2033 27.4286 18C27.4286 12.7967 23.2033 8.57143 18 8.57143ZM14.9602 12.2594C16.2606 12.2594 17.3174 13.3152 17.3174 14.6165C17.3174 15.9179 16.2606 16.9737 14.9602 16.9737C13.6589 16.9737 12.6031 15.9179 12.6031 14.6165C12.6031 13.3152 13.6589 12.2594 14.9602 12.2594ZM14.9602 13.8308C14.5261 13.8308 14.1745 14.1834 14.1745 14.6165C14.1745 15.0506 14.5261 15.4022 14.9602 15.4022C15.3934 15.4022 15.7459 15.0506 15.7459 14.6165C15.7459 14.1834 15.3934 13.8308 14.9602 13.8308ZM21.1476 18.4468C22.448 18.4468 23.5048 19.5026 23.5048 20.8039C23.5048 22.1053 22.448 23.1611 21.1476 23.1611C19.8463 23.1611 18.7905 22.1053 18.7905 20.8039C18.7905 19.5026 19.8463 18.4468 21.1476 18.4468ZM21.1476 20.0182C20.7135 20.0182 20.3619 20.3708 20.3619 20.8039C20.3619 21.238 20.7135 21.5896 21.1476 21.5896C21.5808 21.5896 21.9333 21.238 21.9333 20.8039C21.9333 20.3708 21.5808 20.0182 21.1476 20.0182ZM14.2374 22.6376L13.1266 21.5258L21.8695 12.7836L22.9803 13.8944L14.2374 22.6376Z" fill="#0A2926"/>
<path fill-rule="evenodd" clip-rule="evenodd" d="M18 7C24.0715 7 29 11.9285 29 18C29 24.0715 24.0715 29 18 29C11.9285 29 7 24.0715 7 18C7 11.9285 11.9285 7 18 7ZM18 8.57143C12.7967 8.57143 8.57143 12.7967 8.57143 18C8.57143 23.2033 12.7967 27.4286 18 27.4286C23.2033 27.4286 27.4286 23.2033 27.4286 18C27.4286 12.7967 23.2033 8.57143 18 8.57143ZM14.9602 12.2594C16.2606 12.2594 17.3174 13.3152 17.3174 14.6165C17.3174 15.9179 16.2606 16.9737 14.9602 16.9737C13.6589 16.9737 12.6031 15.9179 12.6031 14.6165C12.6031 13.3152 13.6589 12.2594 14.9602 12.2594ZM14.9602 13.8308C14.5261 13.8308 14.1745 14.1834 14.1745 14.6165C14.1745 15.0506 14.5261 15.4022 14.9602 15.4022C15.3934 15.4022 15.7459 15.0506 15.7459 14.6165C15.7459 14.1834 15.3934 13.8308 14.9602 13.8308ZM21.1476 18.4468C22.448 18.4468 23.5048 19.5026 23.5048 20.8039C23.5048 22.1053 22.448 23.1611 21.1476 23.1611C19.8463 23.1611 18.7905 22.1053 18.7905 20.8039C18.7905 19.5026 19.8463 18.4468 21.1476 18.4468ZM21.1476 20.0182C20.7135 20.0182 20.3619 20.3708 20.3619 20.8039C20.3619 21.238 20.7135 21.5896 21.1476 21.5896C21.5808 21.5896 21.9333 21.238 21.9333 20.8039C21.9333 20.3708 21.5808 20.0182 21.1476 20.0182ZM14.2374 22.6376L13.1266 21.5258L21.8695 12.7836L22.9803 13.8944L14.2374 22.6376Z" fill="black" fill-opacity="0.2"/>
</g>
</g>
</svg>
