<svg width="132" height="132" viewBox="0 0 132 132" fill="none" xmlns="http://www.w3.org/2000/svg">
<path d="M66 39.0254C66 53.923 53.923 66 39.0254 66M66 39.0254C66 24.1278 53.923 12.0509 39.0254 12.0509C24.1278 12.0509 12.0509 24.1278 12.0509 39.0254C12.0509 53.923 24.1278 66 39.0254 66M66 39.0254C66 53.923 78.077 66 92.9746 66M66 39.0254C66 24.1278 78.077 12.0509 92.9746 12.0509C107.872 12.0509 119.949 24.1278 119.949 39.0254C119.949 53.923 107.872 66 92.9746 66M39.0254 66C24.1278 66 12.0509 78.077 12.0509 92.9746C12.0509 107.872 24.1278 119.949 39.0254 119.949C53.923 119.949 66 107.872 66 92.9746M39.0254 66C53.923 66 66 78.077 66 92.9746M92.9746 66C78.077 66 66 78.077 66 92.9746M92.9746 66C107.872 66 119.949 78.077 119.949 92.9746C119.949 107.872 107.872 119.949 92.9746 119.949C78.077 119.949 66 107.872 66 92.9746M131 66C131 101.898 101.898 131 66 131C30.1016 131 1 101.898 1 66C1 30.1016 30.1016 0.999997 66 0.999997C101.898 0.999997 131 30.1016 131 66Z" stroke="#0A2926" stroke-width="1.15733" stroke-miterlimit="10"/>
</svg>
