<svg width="20" height="19" viewBox="0 0 20 19" fill="none" xmlns="http://www.w3.org/2000/svg">
<path d="M13.6626 6.15774C13.4038 6.11918 13.1803 5.95653 13.064 5.72221L11.0748 1.71536C10.6337 0.826809 9.36626 0.826808 8.92516 1.71536L6.9377 5.71887C6.82064 5.95468 6.59506 6.1178 6.33445 6.15509L1.98569 6.77733C0.999338 6.91847 0.604716 8.1307 1.31897 8.82543L4.46243 11.883C4.65101 12.0664 4.73735 12.3308 4.69338 12.5902L3.94953 16.9777C3.78361 17.9564 4.81 18.7018 5.68936 18.2413L9.62886 16.1782C9.86131 16.0565 10.1387 16.0565 10.3711 16.1782L14.3084 18.2401C15.1883 18.7009 16.215 17.9544 16.0481 16.9753L15.3072 12.6316C15.2629 12.372 15.3492 12.1072 15.538 11.9236L18.6917 8.85607C19.4037 8.16359 19.0142 6.9554 18.0319 6.80899L13.6626 6.15774ZM14.5117 15.4784C14.6282 16.1315 13.9449 16.6345 13.3559 16.3291L10.5524 14.8754C10.206 14.6958 9.79397 14.6958 9.44761 14.8754L6.62445 16.3393C6.03834 16.6432 5.35715 16.1464 5.46742 15.4955L5.99667 12.3713C6.06274 11.9812 5.93235 11.5837 5.64811 11.3086L3.37746 9.11081C2.89993 8.6486 3.16153 7.83941 3.81927 7.74422L6.96016 7.28966C7.34709 7.23366 7.68248 6.99268 7.859 6.64383L9.27492 3.84566C9.57264 3.25729 10.4144 3.26153 10.7062 3.85287L12.0987 6.67498C12.2735 7.02941 12.6117 7.275 13.0029 7.33161L16.1374 7.78526C16.7952 7.88045 17.0568 8.68964 16.5792 9.15185L14.3126 11.3457C14.0257 11.6234 13.8957 12.0256 13.9659 12.4187L14.5117 15.4784Z" fill="#0A2926"/>
<path d="M13.6626 6.15774C13.4038 6.11918 13.1803 5.95653 13.064 5.72221L11.0748 1.71536C10.6337 0.826809 9.36626 0.826808 8.92516 1.71536L6.9377 5.71887C6.82064 5.95468 6.59506 6.1178 6.33445 6.15509L1.98569 6.77733C0.999338 6.91847 0.604716 8.1307 1.31897 8.82543L4.46243 11.883C4.65101 12.0664 4.73735 12.3308 4.69338 12.5902L3.94953 16.9777C3.78361 17.9564 4.81 18.7018 5.68936 18.2413L9.62886 16.1782C9.86131 16.0565 10.1387 16.0565 10.3711 16.1782L14.3084 18.2401C15.1883 18.7009 16.215 17.9544 16.0481 16.9753L15.3072 12.6316C15.2629 12.372 15.3492 12.1072 15.538 11.9236L18.6917 8.85607C19.4037 8.16359 19.0142 6.9554 18.0319 6.80899L13.6626 6.15774ZM14.5117 15.4784C14.6282 16.1315 13.9449 16.6345 13.3559 16.3291L10.5524 14.8754C10.206 14.6958 9.79397 14.6958 9.44761 14.8754L6.62445 16.3393C6.03834 16.6432 5.35715 16.1464 5.46742 15.4955L5.99667 12.3713C6.06274 11.9812 5.93235 11.5837 5.64811 11.3086L3.37746 9.11081C2.89993 8.6486 3.16153 7.83941 3.81927 7.74422L6.96016 7.28966C7.34709 7.23366 7.68248 6.99268 7.859 6.64383L9.27492 3.84566C9.57264 3.25729 10.4144 3.26153 10.7062 3.85287L12.0987 6.67498C12.2735 7.02941 12.6117 7.275 13.0029 7.33161L16.1374 7.78526C16.7952 7.88045 17.0568 8.68964 16.5792 9.15185L14.3126 11.3457C14.0257 11.6234 13.8957 12.0256 13.9659 12.4187L14.5117 15.4784Z" fill="black" fill-opacity="0.2"/>
<path d="M13.6626 6.15774C13.4038 6.11918 13.1803 5.95653 13.064 5.72221L11.0748 1.71536C10.6337 0.826809 9.36626 0.826808 8.92516 1.71536L6.9377 5.71887C6.82064 5.95468 6.59506 6.1178 6.33445 6.15509L1.98569 6.77733C0.999338 6.91847 0.604716 8.1307 1.31897 8.82543L4.46243 11.883C4.65101 12.0664 4.73735 12.3308 4.69338 12.5902L3.94953 16.9777C3.78361 17.9564 4.81 18.7018 5.68936 18.2413L9.62886 16.1782C9.86131 16.0565 10.1387 16.0565 10.3711 16.1782L14.3084 18.2401C15.1883 18.7009 16.215 17.9544 16.0481 16.9753L15.3072 12.6316C15.2629 12.372 15.3492 12.1072 15.538 11.9236L18.6917 8.85607C19.4037 8.16359 19.0142 6.9554 18.0319 6.80899L13.6626 6.15774ZM14.5117 15.4784C14.6282 16.1315 13.9449 16.6345 13.3559 16.3291L10.5524 14.8754C10.206 14.6958 9.79397 14.6958 9.44761 14.8754L6.62445 16.3393C6.03834 16.6432 5.35715 16.1464 5.46742 15.4955L5.99667 12.3713C6.06274 11.9812 5.93235 11.5837 5.64811 11.3086L3.37746 9.11081C2.89993 8.6486 3.16153 7.83941 3.81927 7.74422L6.96016 7.28966C7.34709 7.23366 7.68248 6.99268 7.859 6.64383L9.27492 3.84566C9.57264 3.25729 10.4144 3.26153 10.7062 3.85287L12.0987 6.67498C12.2735 7.02941 12.6117 7.275 13.0029 7.33161L16.1374 7.78526C16.7952 7.88045 17.0568 8.68964 16.5792 9.15185L14.3126 11.3457C14.0257 11.6234 13.8957 12.0256 13.9659 12.4187L14.5117 15.4784Z" stroke="#0A2926" stroke-width="0.4"/>
<path d="M13.6626 6.15774C13.4038 6.11918 13.1803 5.95653 13.064 5.72221L11.0748 1.71536C10.6337 0.826809 9.36626 0.826808 8.92516 1.71536L6.9377 5.71887C6.82064 5.95468 6.59506 6.1178 6.33445 6.15509L1.98569 6.77733C0.999338 6.91847 0.604716 8.1307 1.31897 8.82543L4.46243 11.883C4.65101 12.0664 4.73735 12.3308 4.69338 12.5902L3.94953 16.9777C3.78361 17.9564 4.81 18.7018 5.68936 18.2413L9.62886 16.1782C9.86131 16.0565 10.1387 16.0565 10.3711 16.1782L14.3084 18.2401C15.1883 18.7009 16.215 17.9544 16.0481 16.9753L15.3072 12.6316C15.2629 12.372 15.3492 12.1072 15.538 11.9236L18.6917 8.85607C19.4037 8.16359 19.0142 6.9554 18.0319 6.80899L13.6626 6.15774ZM14.5117 15.4784C14.6282 16.1315 13.9449 16.6345 13.3559 16.3291L10.5524 14.8754C10.206 14.6958 9.79397 14.6958 9.44761 14.8754L6.62445 16.3393C6.03834 16.6432 5.35715 16.1464 5.46742 15.4955L5.99667 12.3713C6.06274 11.9812 5.93235 11.5837 5.64811 11.3086L3.37746 9.11081C2.89993 8.6486 3.16153 7.83941 3.81927 7.74422L6.96016 7.28966C7.34709 7.23366 7.68248 6.99268 7.859 6.64383L9.27492 3.84566C9.57264 3.25729 10.4144 3.26153 10.7062 3.85287L12.0987 6.67498C12.2735 7.02941 12.6117 7.275 13.0029 7.33161L16.1374 7.78526C16.7952 7.88045 17.0568 8.68964 16.5792 9.15185L14.3126 11.3457C14.0257 11.6234 13.8957 12.0256 13.9659 12.4187L14.5117 15.4784Z" stroke="black" stroke-opacity="0.2" stroke-width="0.4"/>
</svg>
