<svg width="25" height="24" viewBox="0 0 25 24" fill="none" xmlns="http://www.w3.org/2000/svg">
<g id="Vector">
<path d="M3.02659 23.075H3.10159V23V22.34C3.10159 19.167 4.1707 16.6632 6.29693 15.141L6.29694 15.141L6.29783 15.1403C8.20281 13.7332 11.062 12.9656 14.6752 12.8474V17.5V17.6674L14.8001 17.556L24.0499 9.30597L24.1127 9.25L24.0499 9.19403L14.8001 0.944028L14.6752 0.832609V1V5.65628C7.71179 5.78552 4.26415 8.64426 2.74853 11.0792C0.581842 14.2932 0.368714 18.6087 1.98801 22.6955L2.09484 23.0232L2.11171 23.075H2.16615H3.02659ZM15.9008 11.78V11.705H15.8258H15.288C11.0843 11.705 7.84019 12.5867 5.56427 14.249C3.91416 15.4095 2.85438 17.1682 2.28826 19.2348C1.85729 16.5161 2.4032 13.9165 3.73469 11.8211C5.86719 8.65943 9.81799 6.905 15.288 6.905H15.8258H15.9008V6.83V3.69698L22.2738 9.36L15.9008 15.023V11.78Z" fill="#0A2926"/>
<path d="M3.02659 23.075H3.10159V23V22.34C3.10159 19.167 4.1707 16.6632 6.29693 15.141L6.29694 15.141L6.29783 15.1403C8.20281 13.7332 11.062 12.9656 14.6752 12.8474V17.5V17.6674L14.8001 17.556L24.0499 9.30597L24.1127 9.25L24.0499 9.19403L14.8001 0.944028L14.6752 0.832609V1V5.65628C7.71179 5.78552 4.26415 8.64426 2.74853 11.0792C0.581842 14.2932 0.368714 18.6087 1.98801 22.6955L2.09484 23.0232L2.11171 23.075H2.16615H3.02659ZM15.9008 11.78V11.705H15.8258H15.288C11.0843 11.705 7.84019 12.5867 5.56427 14.249C3.91416 15.4095 2.85438 17.1682 2.28826 19.2348C1.85729 16.5161 2.4032 13.9165 3.73469 11.8211C5.86719 8.65943 9.81799 6.905 15.288 6.905H15.8258H15.9008V6.83V3.69698L22.2738 9.36L15.9008 15.023V11.78Z" fill="black" fill-opacity="0.2"/>
<path d="M3.02659 23.075H3.10159V23V22.34C3.10159 19.167 4.1707 16.6632 6.29693 15.141L6.29694 15.141L6.29783 15.1403C8.20281 13.7332 11.062 12.9656 14.6752 12.8474V17.5V17.6674L14.8001 17.556L24.0499 9.30597L24.1127 9.25L24.0499 9.19403L14.8001 0.944028L14.6752 0.832609V1V5.65628C7.71179 5.78552 4.26415 8.64426 2.74853 11.0792C0.581842 14.2932 0.368714 18.6087 1.98801 22.6955L2.09484 23.0232L2.11171 23.075H2.16615H3.02659ZM15.9008 11.78V11.705H15.8258H15.288C11.0843 11.705 7.84019 12.5867 5.56427 14.249C3.91416 15.4095 2.85438 17.1682 2.28826 19.2348C1.85729 16.5161 2.4032 13.9165 3.73469 11.8211C5.86719 8.65943 9.81799 6.905 15.288 6.905H15.8258H15.9008V6.83V3.69698L22.2738 9.36L15.9008 15.023V11.78Z" stroke="#0A2926" stroke-width="0.15"/>
<path d="M3.02659 23.075H3.10159V23V22.34C3.10159 19.167 4.1707 16.6632 6.29693 15.141L6.29694 15.141L6.29783 15.1403C8.20281 13.7332 11.062 12.9656 14.6752 12.8474V17.5V17.6674L14.8001 17.556L24.0499 9.30597L24.1127 9.25L24.0499 9.19403L14.8001 0.944028L14.6752 0.832609V1V5.65628C7.71179 5.78552 4.26415 8.64426 2.74853 11.0792C0.581842 14.2932 0.368714 18.6087 1.98801 22.6955L2.09484 23.0232L2.11171 23.075H2.16615H3.02659ZM15.9008 11.78V11.705H15.8258H15.288C11.0843 11.705 7.84019 12.5867 5.56427 14.249C3.91416 15.4095 2.85438 17.1682 2.28826 19.2348C1.85729 16.5161 2.4032 13.9165 3.73469 11.8211C5.86719 8.65943 9.81799 6.905 15.288 6.905H15.8258H15.9008V6.83V3.69698L22.2738 9.36L15.9008 15.023V11.78Z" stroke="black" stroke-opacity="0.2" stroke-width="0.15"/>
</g>
</svg>
