<svg width="198" height="198" viewBox="0 0 198 198" fill="none" xmlns="http://www.w3.org/2000/svg">
<g opacity="0.3">
<path d="M125.553 158C120.887 158 116.326 155.917 112.274 151.96C104.175 159.875 93.8191 159.881 85.7207 151.96C81.6686 155.917 77.1071 158 72.4414 158C55.932 158 43 132.084 43 98.9971C43 65.9158 55.932 40 72.4414 40C77.1071 40 81.6686 42.0827 85.7207 46.0405C93.8249 38.1192 104.181 38.1307 112.274 46.0405C116.326 42.0827 120.887 40 125.553 40C142.062 40 155 65.9158 155 98.9971C155 132.084 142.062 158 125.553 158ZM116.007 147.529C119.069 150.661 122.276 152.242 125.553 152.242C138.386 152.242 149.223 127.861 149.223 98.9971C149.223 70.1389 138.386 45.7578 125.553 45.7578C122.276 45.7578 119.069 47.3386 116.007 50.4713C123.058 60.2561 127.498 75.741 128.291 93.3489C130.502 94.3816 131.926 96.5336 131.926 98.9971C131.926 101.42 130.479 103.607 128.291 104.64C127.498 122.253 123.058 137.744 116.007 147.529ZM89.4544 147.529C95.5731 153.788 102.421 153.788 108.546 147.529C104.441 141.823 101.148 134.017 99 124.965C96.8466 134.017 93.5586 141.823 89.4544 147.529ZM72.4414 45.7578C59.6136 45.7578 48.7771 70.1389 48.7771 98.9971C48.7771 127.861 59.6136 152.242 72.4414 152.242C75.7236 152.242 78.9247 150.661 81.987 147.529C74.9363 137.744 70.4964 122.265 69.7033 104.64C67.4978 103.613 66.0796 101.466 66.0796 98.9971C66.0796 96.5336 67.4978 94.3874 69.7033 93.3605C70.4964 75.741 74.9363 60.2561 81.987 50.4713C78.9247 47.3386 75.7236 45.7578 72.4414 45.7578ZM102.033 104.507C102.757 119.847 106.525 133.873 112.274 142.769C118.022 133.873 121.796 119.847 122.52 104.507C120.488 103.411 119.191 101.322 119.191 98.9971C119.191 96.6721 120.488 94.5836 122.52 93.4932C121.796 78.1525 118.022 64.1273 112.274 55.231C106.525 64.1273 102.757 78.1525 102.033 93.4932C104.065 94.5836 105.368 96.6721 105.368 98.9971C105.368 101.328 104.065 103.416 102.033 104.507ZM75.4747 104.507C76.2041 119.842 79.9725 133.873 85.7207 142.769C91.4689 133.873 95.2373 119.842 95.9667 104.507C93.9349 103.416 92.6324 101.328 92.6324 98.9971C92.6324 96.6721 93.9349 94.5836 95.9667 93.4932C95.2431 78.1525 91.4689 64.1273 85.7207 55.2368C79.9725 64.1273 76.2041 78.1525 75.4747 93.4874C77.5123 94.5778 78.8148 96.6721 78.8148 98.9971C78.8148 101.328 77.5123 103.416 75.4747 104.507ZM99 105.776C98.9711 106.295 98.9363 106.815 98.9016 107.328L99 106.688L99.0984 107.328C99.0637 106.815 99.0289 106.295 99 105.776ZM99 95.6451L98.0275 95.9567C96.6556 96.3951 95.7294 97.6182 95.7294 98.9971C95.7294 100.382 96.6498 101.605 98.0275 102.043L99 102.349L99.9725 102.043C101.344 101.605 102.271 100.382 102.271 98.9971C102.271 97.6182 101.344 96.3951 99.9725 95.9567L99 95.6451ZM125.449 95.6797L124.58 95.9567C123.208 96.3951 122.288 97.6182 122.288 98.9971C122.288 100.382 123.208 101.605 124.58 102.043L125.449 102.32L126.381 102.066C127.845 101.674 128.829 100.439 128.829 98.9971C128.829 97.5605 127.845 96.3259 126.381 95.9336L125.449 95.6797ZM72.5514 95.6797L71.6136 95.9336C70.1548 96.3317 69.1766 97.5605 69.1766 98.9971C69.1766 100.439 70.1548 101.668 71.6136 102.066L72.5514 102.314L73.4139 102.043C74.7916 101.605 75.7178 100.382 75.7178 98.9971C75.7178 97.6125 74.7916 96.3951 73.4139 95.9567L72.5514 95.6797ZM98.9016 90.6604C98.9363 91.1797 98.9711 91.6989 99 92.2181C99.0289 91.6989 99.0637 91.1797 99.0984 90.6604L99 91.3066L98.9016 90.6604ZM89.4544 50.4713C93.5586 56.1772 96.8466 63.9831 99 73.0351C101.148 63.9831 104.441 56.1772 108.546 50.4713C102.421 44.2116 95.5731 44.2116 89.4544 50.4713Z" fill="#0A2926"/>
<path d="M99 198C44.4104 198 0 153.585 0 98.9971C0 44.4091 44.4104 0 99 0C153.59 0 198 44.4091 198 98.9971C198 153.585 153.59 198 99 198ZM99 5.75888C47.5842 5.75888 5.75903 47.5828 5.75903 98.9971C5.75903 150.417 47.5842 192.247 99 192.247C150.416 192.247 192.241 150.417 192.241 98.9971C192.241 47.5828 150.416 5.75888 99 5.75888Z" fill="#0A2926"/>
</g>
</svg>
