<svg width="24" height="22" viewBox="0 0 24 22" fill="none" xmlns="http://www.w3.org/2000/svg">
<path d="M11.7493 12.5999C15.224 12.5999 18.0492 9.77192 18.0492 6.29995C18.0492 2.82798 15.2237 0 11.7493 0C8.27479 0 5.44678 2.82549 5.44678 6.29995C5.44678 9.77442 8.27476 12.5999 11.7493 12.5999ZM11.7493 1.88904C14.1806 1.88904 16.1573 3.86589 16.1573 6.29711C16.1573 8.72846 14.1805 10.7052 11.7493 10.7052C9.31803 10.7052 7.33866 8.72833 7.33866 6.29711C7.33866 3.86577 9.31551 1.88904 11.7493 1.88904Z" fill="#0A2926"/>
<path d="M0.945938 22.0003C1.46942 22.0003 1.89188 21.5778 1.89188 21.0543C1.89188 18.2202 4.20006 15.9119 7.03431 15.9119H16.4653C19.2994 15.9119 21.6078 18.2201 21.6078 21.0543C21.6078 21.5778 22.0302 22.0003 22.5537 22.0003C23.0772 22.0003 23.4996 21.5778 23.4996 21.0543C23.4996 17.1757 20.3427 14.02 16.4653 14.02H7.03431C3.15565 14.02 0 17.1769 0 21.0543C0 21.5778 0.422456 22.0003 0.945938 22.0003Z" fill="#0A2926"/>
</svg>
