<svg width="221" height="137" viewBox="0 0 221 137" fill="none" xmlns="http://www.w3.org/2000/svg">
<path d="M1 68.5933C1 105.924 26.8213 136.187 58.676 136.187C90.5293 136.187 116.352 105.924 116.352 68.5933C116.352 31.2627 90.5293 0.999988 58.676 0.999988C26.8213 0.999988 1 31.2627 1 68.5933ZM1 68.5933H219.929M219.964 68.5933C219.964 105.924 194.143 136.187 162.288 136.187C130.435 136.187 104.612 105.924 104.612 68.5933C104.612 31.2627 130.435 0.999988 162.288 0.999988C194.143 0.999988 219.964 31.2627 219.964 68.5933ZM162.288 68.5933C162.288 105.924 136.465 136.187 104.612 136.187C72.7587 136.187 46.936 105.924 46.936 68.5933C46.936 31.2627 72.7587 0.999988 104.612 0.999988C136.465 0.999988 162.288 31.2627 162.288 68.5933Z" stroke="#0A2926" stroke-width="1.15733" stroke-miterlimit="10"/>
</svg>
